<?xml version="1.0" encoding="UTF-8" standalone="no"?>
<!DOCTYPE svg PUBLIC "-//W3C//DTD SVG 1.1//EN" "http://www.w3.org/Graphics/SVG/1.1/DTD/svg11.dtd">
<svg width="100%" height="100%" viewBox="0 0 1888 1492" version="1.1" xmlns="http://www.w3.org/2000/svg" xmlns:xlink="http://www.w3.org/1999/xlink" xml:space="preserve" xmlns:serif="http://www.serif.com/" style="fill-rule:evenodd;clip-rule:evenodd;stroke-linejoin:round;stroke-miterlimit:2;">
    <g transform="matrix(3.65939,0,0,3.65939,114.668,195.271)">
        <g>
            <path d="M75.443,204.503C61.763,217.897 59.466,238.619 62.349,256.768C62.424,257.18 63.061,257.068 63.061,256.681C63.061,252.549 62.936,248.455 62.949,244.373C63.023,244.185 63.086,244.011 63.161,243.824C66.731,241.227 70.014,238.294 72.048,234.275C74.332,229.781 75.231,224.712 76.979,220.019C77.141,219.57 76.662,219.702 76.349,219.933C68.027,226.071 65.374,232.676 62.986,241.502C63.098,236.92 63.448,232.339 64.434,227.758C66.231,219.382 69.789,211.082 75.806,204.866C76.03,204.628 75.681,204.266 75.443,204.503Z" style="fill:rgb(156,158,160);fill-rule:nonzero;"/>
            <path d="M78.015,206.065C80.369,206.144 81.844,209.907 83.678,211.003C84.648,211.588 85.593,211.552 86.275,210.596C88.093,208.058 85.599,204.929 83.254,203.178C84.931,203.868 86.322,205.08 88.13,205.423C89.226,205.625 90.077,205.218 90.332,204.105C91.129,200.646 86.79,199.108 83.814,199.035C85.257,198.032 89.393,195.304 87.196,193.963C84.969,192.618 80.116,196.517 78.533,197.801C76.206,199.689 73.432,202.509 73.327,205.462C73.191,208.909 76.204,206.788 78.015,206.065Z" style="fill:rgb(211,213,212);fill-rule:nonzero;"/>
            <path d="M77.333,206.645C80.343,205.277 86.123,207.247 86.615,206.107C87.612,203.789 82.992,202.199 80.499,201.891C82.795,201.269 87.195,200.278 87.06,198.063C86.895,195.359 80.311,197.684 76.979,200.24C72.78,203.459 72.808,206.564 73.502,207.187C74.454,208.04 76.837,206.872 77.333,206.645Z" style="fill:rgb(229,229,228);fill-rule:nonzero;"/>
            <path d="M44.286,203.177C58.467,216.042 61.55,236.66 59.359,254.906C59.3,255.321 58.66,255.233 58.645,254.846C58.487,250.717 58.456,246.622 58.289,242.543C58.207,242.359 58.138,242.186 58.056,242.003C54.39,239.544 50.997,236.737 48.811,232.797C46.358,228.394 45.267,223.364 43.342,218.741C43.163,218.297 43.646,218.412 43.969,218.63C52.518,224.447 55.42,230.947 58.142,239.675C57.856,235.102 57.332,230.538 56.172,225.997C54.058,217.696 50.187,209.536 43.938,203.553C43.705,203.325 44.04,202.95 44.286,203.177Z" style="fill:rgb(156,158,160);fill-rule:nonzero;"/>
            <path d="M41.776,204.836C39.428,205.004 38.097,208.82 36.306,209.987C35.358,210.607 34.412,210.607 33.694,209.677C31.781,207.211 34.154,203.989 36.431,202.151C34.781,202.903 33.437,204.168 31.644,204.58C30.557,204.822 29.691,204.449 29.393,203.345C28.466,199.919 32.743,198.217 35.714,198.032C34.234,197.084 29.997,194.516 32.141,193.092C34.315,191.663 39.313,195.375 40.944,196.597C43.341,198.395 46.221,201.109 46.437,204.055C46.705,207.494 43.614,205.489 41.776,204.836Z" style="fill:rgb(211,213,212);fill-rule:nonzero;"/>
            <path d="M42.479,205.389C39.42,204.137 33.718,206.325 33.184,205.206C32.099,202.926 36.656,201.162 39.136,200.759C36.817,200.225 32.382,199.402 32.433,197.183C32.495,194.475 39.163,196.548 42.59,198.975C46.908,202.033 46.998,205.137 46.329,205.785C45.41,206.673 42.984,205.596 42.479,205.389Z" style="fill:rgb(229,229,228);fill-rule:nonzero;"/>
            <path d="M58.788,237.151C59.835,243.931 61.132,250.94 63.19,257.491C63.387,258.087 64.273,257.935 64.182,257.292C63.25,251.023 61.552,244.871 60.621,238.603C59.674,232.261 59.168,225.831 59.531,219.417C60.129,208.855 62.997,197.62 69.889,189.355C70.04,189.159 69.719,188.882 69.563,189.064C55.764,205.153 57.96,224.879 57.972,226.647C56.019,219.986 54.006,212.351 46.617,205.569C46.298,205.276 46.049,205.416 46.102,205.913C47.424,218.266 50.858,224.716 58.02,231.321C58.224,233.279 58.476,235.228 58.788,237.151Z" style="fill:rgb(156,158,160);fill-rule:nonzero;"/>
            <path d="M70.014,191.206C72.496,190.103 75.92,193.264 78.375,193.479C79.676,193.597 80.639,193.085 80.865,191.749C81.474,188.201 77.311,186.21 73.997,185.573C76.084,185.444 78.137,186.002 80.185,185.448C81.423,185.105 82.102,184.255 81.807,182.972C80.892,178.982 75.617,179.569 72.492,180.993C73.484,179.225 76.402,174.314 73.448,174.029C70.46,173.753 67.388,180.241 66.392,182.371C64.928,185.5 63.469,189.824 64.847,192.939C66.44,196.585 68.498,192.867 70.014,191.206Z" style="fill:rgb(211,213,212);fill-rule:nonzero;"/>
            <path d="M69.599,192.151C72.033,189.216 79.021,188.349 78.958,186.92C78.825,184.013 73.232,184.689 70.49,185.625C72.559,183.823 76.625,180.58 75.371,178.35C73.838,175.628 68.178,181.354 66.006,185.683C63.271,191.136 64.862,194.345 65.896,194.641C67.313,195.046 69.197,192.635 69.599,192.151Z" style="fill:rgb(229,229,228);fill-rule:nonzero;"/>
            <path d="M49.709,240.87L43.623,287.367L80.655,287.367C79.893,283.247 73,240.816 73,240.816L49.709,240.87Z" style="fill:rgb(211,213,212);fill-rule:nonzero;"/>
            <rect x="410.838" y="93.746" width="26.48" height="11.19" style="fill:rgb(229,229,228);fill-rule:nonzero;"/>
            <rect x="425.609" y="79.636" width="26.481" height="11.19" style="fill:rgb(229,229,228);fill-rule:nonzero;"/>
            <rect x="396.065" y="79.636" width="26.481" height="11.19" style="fill:rgb(229,229,228);fill-rule:nonzero;"/>
            <rect x="14.771" y="238.068" width="26.481" height="11.19" style="fill:rgb(229,229,228);fill-rule:nonzero;"/>
            <rect x="0" y="223.959" width="26.48" height="11.189" style="fill:rgb(229,229,228);fill-rule:nonzero;"/>
            <rect x="425.609" y="238.056" width="26.481" height="11.191" style="fill:rgb(229,229,228);fill-rule:nonzero;"/>
            <rect x="88.471" y="0.57" width="26.481" height="11.19" style="fill:rgb(229,229,228);fill-rule:nonzero;"/>
            <rect x="73.699" y="14.68" width="26.481" height="11.19" style="fill:rgb(229,229,228);fill-rule:nonzero;"/>
            <path d="M33.994,287.33L82.007,287.086L130.02,286.998L226.045,286.831L322.07,286.997L370.083,287.085L418.095,287.33L370.083,287.574L322.07,287.662L226.045,287.829L130.02,287.661L82.007,287.572L33.994,287.33Z" style="fill:rgb(12,43,52);fill-rule:nonzero;"/>
            <path d="M106.522,98.229L106.522,133.668L77.967,133.668L106.522,98.229ZM149.448,145.187L149.437,145.176C149.18,144.886 148.902,144.608 148.612,144.352L148.601,144.34C148.345,144.051 148.066,143.772 147.777,143.516L147.765,143.505C147.509,143.215 147.231,142.937 146.941,142.681L146.93,142.669C146.674,142.379 146.395,142.101 146.106,141.845L146.095,141.834C145.838,141.544 145.559,141.266 145.27,141.009L145.259,140.998C145.003,140.709 144.724,140.43 144.434,140.174L144.423,140.163C144.167,139.873 143.888,139.594 143.599,139.338L143.588,139.327C143.331,139.037 143.053,138.759 142.763,138.502L142.752,138.491C142.496,138.202 142.217,137.923 141.928,137.667L141.916,137.656C141.07,136.731 140.09,135.94 138.987,135.305L138.987,52.773C138.987,52.339 138.775,52.116 138.775,51.682C138.775,51.024 138.775,50.801 138.552,50.367C138.552,50.144 138.34,49.709 138.34,49.487C138.118,48.83 138.118,48.606 137.895,48.172C137.672,47.949 137.46,47.515 137.46,47.292C137.015,46.635 136.803,46.412 136.58,46.2C136.357,45.978 136.145,45.543 135.923,45.32L135.042,44.44C135.042,44.306 134.875,44.172 134.686,44.084C134.575,43.972 134.43,43.827 134.252,43.649L134.207,43.605C134.207,43.471 134.04,43.337 133.85,43.248C133.739,43.136 133.594,42.992 133.416,42.814L133.372,42.769C133.372,42.635 133.204,42.502 133.015,42.412C132.904,42.301 132.759,42.156 132.58,41.978L132.536,41.933C132.536,41.799 132.369,41.666 132.18,41.577C132.068,41.465 131.923,41.32 131.745,41.142L131.7,41.098C131.7,40.964 131.533,40.83 131.344,40.741C131.232,40.629 131.088,40.485 130.909,40.307L130.865,40.262C130.865,40.128 130.698,39.995 130.507,39.905C130.397,39.794 130.252,39.649 130.074,39.471L130.029,39.426C130.029,39.293 129.862,39.159 129.673,39.07C129.561,38.959 129.416,38.813 129.238,38.635L129.194,38.591C129.194,38.457 129.026,38.324 128.837,38.234C128.725,38.123 128.58,37.978 128.403,37.8L128.358,37.755C128.358,37.622 128.19,37.488 128.001,37.399C127.89,37.287 127.746,37.143 127.567,36.964L127.522,36.92C127.522,36.786 127.355,36.652 127.166,36.563L126.687,36.084C126.687,35.873 126.252,35.649 126.03,35.649C126.03,35.427 125.818,35.427 125.818,35.427C125.372,35.215 125.149,34.992 124.715,34.77C124.492,34.547 124.057,34.335 123.623,33.89C123.4,33.89 122.966,33.678 122.743,33.678C122.308,33.455 121.64,33.455 121.428,33.232C120.994,33.232 120.771,33.232 120.326,33.021L116.604,33.021C116.382,33.232 115.947,33.232 115.724,33.232C115.067,33.455 114.632,33.455 114.41,33.678C113.975,33.678 113.752,33.89 113.529,34.335C112.872,34.335 112.661,34.547 112.215,34.77C112.003,34.992 111.558,35.215 111.334,35.427C111.123,35.649 110.9,35.873 110.243,36.084C110.031,36.53 109.809,36.741 109.586,36.964C109.363,37.187 109.363,37.399 109.151,37.399L28.022,138.269C24.089,143.227 24.457,150.145 29.114,154.401C29.37,154.702 29.649,154.98 29.95,155.236C30.206,155.537 30.484,155.816 30.785,156.072C31.041,156.373 31.32,156.651 31.621,156.908C31.877,157.209 32.156,157.487 32.456,157.743C32.712,158.044 32.991,158.323 33.292,158.579C33.548,158.879 33.827,159.158 34.127,159.415C34.384,159.715 34.662,159.994 34.963,160.25C35.219,160.55 35.498,160.829 35.798,161.085C36.055,161.386 36.333,161.665 36.634,161.922C37.135,162.489 37.715,163.024 38.35,163.502C40.544,165.475 43.174,166.132 45.803,166.132L106.522,166.132L106.522,174.443C106.522,178.076 108.015,181.261 110.443,183.445L110.477,183.479C110.733,183.757 111,184.025 111.279,184.281L111.301,184.303C111.558,184.592 111.836,184.86 112.115,185.117L112.148,185.15C112.404,185.428 112.672,185.696 112.95,185.952L112.973,185.974C113.228,186.264 113.507,186.531 113.786,186.788L113.819,186.821C114.075,187.099 114.343,187.367 114.621,187.623L114.643,187.645C114.9,187.935 115.178,188.203 115.457,188.459L115.49,188.492C115.747,188.771 116.014,189.038 116.292,189.294L116.315,189.317C116.571,189.606 116.85,189.874 117.128,190.129L117.162,190.164C117.417,190.442 117.685,190.71 117.963,190.965L117.986,190.988C120.169,193.383 123.333,194.865 126.932,194.865C133.728,194.865 138.987,189.595 138.987,182.799L138.987,166.132L141.182,166.132C147.977,166.132 153.458,160.874 153.458,154.078C153.458,150.59 151.91,147.404 149.448,145.187Z" style="fill:rgb(254,193,48);fill-rule:nonzero;"/>
            <clipPath id="_clip1">
                <path d="M126.932,194.865C123.333,194.865 120.169,193.383 117.986,190.988L117.963,190.965C117.685,190.71 117.417,190.442 117.162,190.164L117.128,190.129C116.85,189.874 116.571,189.606 116.315,189.317L116.292,189.294C116.014,189.038 115.747,188.771 115.49,188.492L115.457,188.459C115.178,188.203 114.9,187.935 114.643,187.645L114.621,187.623C114.343,187.367 114.075,187.099 113.819,186.821L113.786,186.788C113.507,186.531 113.228,186.264 112.973,185.974L112.95,185.952C112.672,185.696 112.404,185.428 112.148,185.15L112.115,185.117C111.836,184.86 111.558,184.592 111.301,184.303L111.279,184.281C111,184.025 110.733,183.757 110.477,183.479L110.443,183.445C108.015,181.261 106.522,178.076 106.522,174.443L106.522,166.132L45.803,166.132C43.174,166.132 40.544,165.475 38.35,163.502C37.715,163.024 37.135,162.489 36.634,161.922C36.333,161.665 36.055,161.386 35.798,161.085C35.498,160.829 35.219,160.55 34.963,160.25C34.662,159.994 34.384,159.715 34.127,159.415C33.827,159.158 33.548,158.879 33.292,158.579C32.991,158.323 32.712,158.044 32.456,157.743C32.156,157.487 31.877,157.209 31.621,156.908C31.32,156.651 31.041,156.373 30.785,156.072C30.484,155.816 30.206,155.537 29.95,155.236C29.649,154.98 29.37,154.702 29.114,154.401C26.585,152.09 25.321,148.994 25.324,145.854C25.325,143.21 26.225,140.535 28.022,138.269L109.151,37.399C109.363,37.399 109.363,37.187 109.586,36.964C109.809,36.741 110.031,36.53 110.243,36.084C110.9,35.873 111.123,35.649 111.334,35.427C111.558,35.215 112.003,34.992 112.215,34.77C112.661,34.547 112.872,34.335 113.529,34.335C113.752,33.89 113.975,33.678 114.41,33.678C114.632,33.455 115.067,33.455 115.724,33.232C115.947,33.232 116.382,33.232 116.604,33.021L120.326,33.021C120.771,33.232 120.994,33.232 121.428,33.232C121.64,33.455 122.308,33.455 122.743,33.678C122.966,33.678 123.4,33.89 123.623,33.89C124.057,34.335 124.492,34.547 124.715,34.77C125.149,34.992 125.372,35.215 125.818,35.427C125.818,35.427 126.03,35.427 126.03,35.649C126.252,35.649 126.687,35.873 126.687,36.084L127.166,36.563C127.355,36.652 127.522,36.786 127.522,36.92L127.567,36.964C127.746,37.143 127.89,37.287 128.001,37.399C128.19,37.488 128.358,37.622 128.358,37.755L128.403,37.8C128.58,37.978 128.725,38.123 128.837,38.234C129.026,38.324 129.194,38.457 129.194,38.591L129.238,38.635C129.416,38.813 129.561,38.959 129.673,39.07C129.862,39.159 130.029,39.293 130.029,39.426L130.074,39.471C130.252,39.649 130.397,39.794 130.507,39.905C130.698,39.995 130.865,40.128 130.865,40.262L130.909,40.307C131.088,40.485 131.232,40.629 131.344,40.741C131.533,40.83 131.7,40.964 131.7,41.098L131.745,41.142C131.923,41.32 132.068,41.465 132.18,41.577C132.369,41.666 132.536,41.799 132.536,41.933L132.58,41.978C132.759,42.156 132.904,42.301 133.015,42.412C133.204,42.502 133.372,42.635 133.372,42.769L133.416,42.814C133.594,42.992 133.739,43.136 133.85,43.248C134.04,43.337 134.207,43.471 134.207,43.605L134.252,43.649C134.43,43.827 134.575,43.972 134.686,44.084C134.875,44.172 135.042,44.306 135.042,44.44L135.923,45.32C136.145,45.543 136.357,45.978 136.58,46.2C136.803,46.412 137.015,46.635 137.46,47.292C137.46,47.515 137.672,47.949 137.895,48.172C138.118,48.606 138.118,48.83 138.34,49.487C138.34,49.709 138.552,50.144 138.552,50.367C138.771,50.794 138.775,51.017 138.775,51.651L138.775,51.682C138.775,52.116 138.987,52.339 138.987,52.773L138.987,135.305C140.09,135.94 141.07,136.731 141.916,137.656L141.928,137.667C142.217,137.923 142.496,138.202 142.752,138.491L142.763,138.502C143.053,138.759 143.331,139.037 143.588,139.327L143.599,139.338C143.888,139.594 144.167,139.873 144.423,140.163L144.434,140.174C144.724,140.43 145.003,140.709 145.259,140.998L145.27,141.009C145.559,141.266 145.838,141.544 146.095,141.834L146.106,141.845C146.395,142.101 146.674,142.379 146.93,142.669L146.941,142.681C147.231,142.937 147.509,143.215 147.765,143.505L147.777,143.516C148.066,143.772 148.345,144.051 148.601,144.34L148.612,144.352C148.902,144.608 149.18,144.886 149.437,145.176L149.448,145.187C151.91,147.404 153.458,150.59 153.458,154.078C153.458,160.874 147.977,166.132 141.182,166.132L138.987,166.132L138.987,182.799C138.987,189.595 133.728,194.865 126.932,194.865ZM77.967,133.668L106.522,133.668L106.522,98.229L77.967,133.668Z"/>
            </clipPath>
            <g clip-path="url(#_clip1)">
                <rect x="25.321" y="33.021" width="128.137" height="161.844" style="fill:rgb(247,179,31);fill-rule:nonzero;"/>
            </g>
            <path d="M106.517,79.502L62.882,133.662L106.517,133.662L106.517,79.502ZM145.108,145.721C145.108,152.519 139.626,157.781 132.828,157.781L130.636,157.781L130.636,174.447C130.636,181.244 125.373,186.505 118.578,186.505C111.779,186.505 106.517,181.244 106.517,174.447L106.517,157.781L37.446,157.781C34.815,157.781 32.184,157.124 29.991,155.149C24.509,150.983 23.852,143.529 28.018,138.266L109.148,37.402C109.368,37.402 109.368,37.183 109.587,36.965C109.807,36.746 110.026,36.526 110.245,36.087C110.901,35.867 111.12,35.649 111.34,35.43C111.559,35.21 111.998,34.991 112.218,34.772C112.657,34.552 112.877,34.333 113.532,34.333C113.752,33.895 113.971,33.675 114.41,33.675C114.63,33.456 115.069,33.456 115.727,33.236C115.947,33.236 116.383,33.236 116.602,33.017L120.331,33.017C120.769,33.236 120.989,33.236 121.428,33.236C121.645,33.456 122.304,33.456 122.742,33.675C122.962,33.675 123.401,33.895 123.62,33.895C124.059,34.333 124.495,34.552 124.715,34.772C125.154,34.991 125.373,35.21 125.812,35.43C125.812,35.43 126.032,35.43 126.032,35.649C126.251,35.649 126.69,35.867 126.69,36.087C127.129,36.526 127.346,36.746 127.565,36.965C127.785,37.183 128.004,37.622 128.224,37.841C128.442,38.061 128.662,38.28 129.102,38.938C129.102,39.157 129.321,39.596 129.541,39.815C129.759,40.253 129.759,40.473 129.979,41.131C129.979,41.349 130.196,41.788 130.196,42.007C130.416,42.446 130.416,42.665 130.416,43.323C130.416,43.762 130.636,43.981 130.636,44.419L130.636,133.662L132.828,133.662C139.626,133.662 145.108,139.144 145.108,145.721Z" style="fill:rgb(254,193,48);fill-rule:nonzero;"/>
            <path d="M244.842,148.574C238.48,158 231.25,162.166 224.453,162.166C220.71,162.166 216.766,160.907 212.889,158.189C212.577,157.788 212.276,157.364 211.975,156.93C205.837,147.716 201.448,133.69 201.448,118.115C201.448,102.328 205.837,88.514 211.975,79.088C218.56,69.874 226.013,65.496 232.809,65.708C236.419,65.597 240.151,66.777 243.816,69.307C244.162,69.774 244.507,70.242 244.842,70.732C250.98,80.158 255.37,93.973 255.37,109.759C255.37,125.334 250.98,139.36 244.842,148.574ZM273.373,65.708C270.878,61.909 268.004,58.388 264.795,55.269C264.673,55.135 264.55,55.013 264.416,54.901L264.305,54.79C264.204,54.678 264.104,54.567 263.993,54.467C263.714,54.166 263.413,53.887 263.124,53.598L263.046,53.531C262.945,53.431 262.846,53.33 262.745,53.23L262.634,53.119C262.533,53.007 262.434,52.896 262.321,52.795C262.043,52.495 261.742,52.216 261.453,51.927L261.375,51.86C261.273,51.759 261.174,51.659 261.074,51.559L260.963,51.448C260.862,51.336 260.762,51.225 260.65,51.125C260.372,50.824 260.071,50.545 259.781,50.255L259.703,50.189C259.603,50.088 259.502,49.988 259.402,49.888L259.29,49.776C259.191,49.665 259.091,49.554 258.979,49.453C258.7,49.152 258.4,48.874 258.109,48.585L258.032,48.518C257.931,48.406 257.842,48.306 257.73,48.217L257.62,48.105C248.818,39.025 237.332,33.021 224.453,33.021C207.129,33.021 192.88,43.326 183.666,57.352C174.018,71.39 168.983,89.594 168.76,109.759C168.983,129.712 174.018,148.129 183.666,162.166C186.151,165.876 188.992,169.363 192.156,172.461C192.301,172.605 192.446,172.739 192.59,172.883L192.646,172.939C192.902,173.207 193.17,173.463 193.426,173.719C193.559,173.864 193.693,173.998 193.827,174.131C193.972,174.276 194.117,174.41 194.262,174.555L194.317,174.611C194.574,174.878 194.841,175.134 195.097,175.39C195.231,175.535 195.365,175.669 195.498,175.802C195.643,175.948 195.788,176.081 195.932,176.226L195.988,176.282C196.244,176.549 196.512,176.805 196.768,177.061C196.902,177.207 197.035,177.34 197.169,177.473C197.314,177.619 197.459,177.753 197.604,177.897L197.66,177.953C197.915,178.22 198.183,178.476 198.439,178.733C198.573,178.878 198.707,179.011 198.84,179.145C198.985,179.29 199.13,179.423 199.275,179.568L199.33,179.624C199.587,179.891 199.854,180.148 200.111,180.404C208.778,189.06 219.952,194.865 232.809,194.865C249.687,194.865 264.16,184.336 273.373,170.522C282.799,156.484 288.068,138.068 288.068,118.115C288.068,97.95 282.799,79.746 273.373,65.708Z" style="fill:rgb(254,193,48);fill-rule:nonzero;"/>
            <path d="M232.809,194.865C219.952,194.865 208.778,189.06 200.111,180.404C199.854,180.148 199.587,179.891 199.33,179.624L199.275,179.568C199.13,179.423 198.985,179.29 198.84,179.145C198.707,179.011 198.573,178.878 198.439,178.733C198.183,178.476 197.915,178.22 197.66,177.953L197.604,177.897C197.459,177.753 197.314,177.619 197.169,177.473C197.035,177.34 196.902,177.207 196.768,177.061C196.512,176.805 196.244,176.549 195.988,176.282L195.932,176.226C195.788,176.081 195.643,175.948 195.498,175.802C195.365,175.669 195.231,175.535 195.097,175.39C194.841,175.134 194.574,174.878 194.317,174.611L194.262,174.555C194.117,174.41 193.972,174.276 193.827,174.131C193.693,173.998 193.559,173.864 193.426,173.719C193.17,173.463 192.902,173.207 192.646,172.939L192.59,172.883C192.446,172.739 192.301,172.605 192.156,172.461C191.723,172.037 191.297,171.607 190.877,171.17C199.664,180.302 211.153,186.505 224.452,186.505C241.338,186.505 255.806,175.981 265.019,162.167C265.389,161.616 265.754,161.057 266.111,160.493C266.143,160.466 266.175,160.44 266.207,160.413C268.053,160.646 270.448,160.939 271.84,161.108C272.684,157.978 273.544,155.007 274.38,152.274C276.193,150.104 277.858,147.816 279.363,145.427C278.544,152.972 278.705,156.904 279.032,160.54C277.359,164.063 275.469,167.401 273.373,170.522C264.16,184.336 249.687,194.865 232.809,194.865ZM282.144,83.084C279.13,77.189 275.242,71.897 270.689,67.335C269.014,63.818 267.12,60.484 265.019,57.356C262.876,54.092 260.449,51.029 257.773,48.251C257.864,48.331 257.944,48.42 258.032,48.518L258.109,48.585C258.4,48.874 258.7,49.152 258.979,49.453C259.091,49.554 259.191,49.665 259.29,49.776L259.402,49.888C259.502,49.988 259.603,50.088 259.703,50.189L259.781,50.255C260.071,50.545 260.372,50.824 260.65,51.125C260.762,51.225 260.862,51.336 260.963,51.448L261.074,51.559C261.174,51.659 261.273,51.759 261.375,51.86L261.453,51.927C261.742,52.216 262.043,52.495 262.321,52.795C262.434,52.896 262.533,53.007 262.634,53.119L262.745,53.23C262.846,53.33 262.945,53.431 263.046,53.531L263.124,53.598C263.413,53.887 263.714,54.166 263.993,54.467C264.104,54.567 264.204,54.678 264.305,54.79L264.416,54.901C264.55,55.013 264.673,55.135 264.795,55.269C268.004,58.388 270.878,61.909 273.373,65.708C276.897,70.956 279.84,76.786 282.144,83.084Z" style="fill:rgb(247,179,31);fill-rule:nonzero;"/>
            <path d="M184.222,162.984C184.035,162.712 183.85,162.44 183.666,162.166C181.685,159.283 179.9,156.218 178.309,152.991L178.311,152.993C179.901,156.219 181.688,159.285 183.669,162.167C183.852,162.441 184.036,162.712 184.222,162.984Z" style="fill:rgb(247,179,31);fill-rule:nonzero;"/>
            <path d="M174.667,75.065C176.992,68.639 179.995,62.693 183.666,57.352C186.119,53.618 188.929,50.148 192.058,47.065C188.929,50.149 186.121,53.62 183.669,57.356C179.997,62.697 176.993,68.639 174.667,75.065Z" style="fill:rgb(247,179,31);fill-rule:nonzero;"/>
            <path d="M255.368,109.762C255.368,93.974 250.983,80.161 244.844,70.731C238.484,61.522 231.251,57.137 224.452,57.356C217.654,57.137 210.2,61.522 203.623,70.731C197.483,80.161 193.096,93.974 193.096,109.762C193.096,125.33 197.483,139.363 203.623,148.572C210.2,158.001 217.654,162.167 224.452,162.167C231.251,162.167 238.484,158.001 244.844,148.572C250.983,139.363 255.368,125.33 255.368,109.762ZM168.758,109.762C168.978,89.589 174.02,71.39 183.669,57.356C192.877,43.323 207.129,33.017 224.452,33.017C241.338,33.017 255.806,43.323 265.019,57.356C274.446,71.39 279.709,89.589 279.709,109.762C279.709,129.714 274.446,148.133 265.019,162.167C255.806,175.981 241.338,186.505 224.452,186.505C207.129,186.505 192.877,175.981 183.669,162.167C174.02,148.133 168.978,129.714 168.758,109.762Z" style="fill:rgb(254,193,48);fill-rule:nonzero;"/>
            <path d="M379.822,98.229L379.822,133.668L351.267,133.668L379.822,98.229ZM422.759,145.187L422.748,145.176C422.48,144.886 422.202,144.608 421.924,144.352L421.912,144.34C421.645,144.051 421.366,143.772 421.088,143.516L421.077,143.505C420.809,143.215 420.531,142.937 420.253,142.681L420.241,142.669C419.974,142.379 419.695,142.101 419.417,141.845L419.406,141.834C419.138,141.544 418.86,141.266 418.581,141.009L418.57,140.998C418.303,140.709 418.024,140.43 417.746,140.174L417.734,140.163C417.468,139.873 417.188,139.594 416.91,139.338L416.899,139.327C416.632,139.037 416.353,138.759 416.075,138.502L416.063,138.491C415.796,138.202 415.517,137.923 415.239,137.667L415.227,137.656C414.381,136.731 413.389,135.929 412.287,135.305L412.287,52.773C412.287,52.339 412.075,52.116 412.075,51.682C412.075,51.024 412.075,50.801 411.852,50.367C411.852,50.144 411.64,49.709 411.64,49.487C411.418,48.83 411.418,48.606 411.195,48.172C410.983,47.949 410.761,47.515 410.761,47.292C410.326,46.635 410.103,46.412 409.88,46.2C409.657,45.978 409.446,45.543 409.222,45.32L408.343,44.44C408.343,44.306 408.176,44.172 407.986,44.084C407.875,43.972 407.73,43.827 407.552,43.649L407.507,43.605C407.507,43.471 407.34,43.337 407.15,43.248C407.039,43.136 406.894,42.992 406.716,42.814L406.672,42.769C406.672,42.635 406.505,42.502 406.315,42.412C406.204,42.301 406.058,42.156 405.881,41.978L405.836,41.933C405.836,41.799 405.669,41.666 405.479,41.577C405.368,41.465 405.224,41.32 405.045,41.142L405.001,41.098C405.001,40.964 404.833,40.83 404.643,40.741C404.532,40.629 404.388,40.485 404.21,40.307L404.165,40.262C404.165,40.128 403.998,39.995 403.808,39.905C403.697,39.794 403.552,39.649 403.374,39.471L403.329,39.426C403.329,39.293 403.162,39.159 402.973,39.07C402.861,38.959 402.717,38.813 402.538,38.635L402.494,38.591C402.494,38.457 402.327,38.324 402.138,38.234C402.026,38.123 401.881,37.978 401.703,37.8L401.658,37.755C401.658,37.622 401.491,37.488 401.302,37.399C401.19,37.287 401.046,37.143 400.867,36.964L400.822,36.92C400.822,36.786 400.655,36.652 400.466,36.563L399.987,36.084C399.987,35.873 399.553,35.649 399.33,35.649C399.33,35.427 399.106,35.427 399.106,35.427C398.673,35.215 398.45,34.992 398.015,34.77C397.792,34.547 397.358,34.335 396.923,33.89C396.7,33.89 396.266,33.678 396.043,33.678C395.608,33.455 394.951,33.455 394.728,33.232C394.283,33.232 394.071,33.232 393.626,33.021L389.904,33.021C389.682,33.232 389.247,33.232 389.024,33.232C388.367,33.455 387.932,33.455 387.71,33.678C387.275,33.678 387.053,33.89 386.83,34.335C386.183,34.335 385.961,34.547 385.514,34.77C385.304,34.992 384.857,35.215 384.646,35.427C384.423,35.649 384.2,35.873 383.543,36.084C383.32,36.53 383.108,36.741 382.886,36.964C382.663,37.187 382.663,37.399 382.451,37.399L301.322,138.269C297.389,143.227 297.758,150.145 302.414,154.401C302.671,154.702 302.949,154.98 303.25,155.236C303.506,155.537 303.785,155.816 304.086,156.072C304.342,156.373 304.62,156.651 304.921,156.908C305.178,157.209 305.456,157.487 305.757,157.743C306.013,158.044 306.292,158.323 306.593,158.579C306.848,158.879 307.127,159.158 307.428,159.415C307.684,159.715 307.963,159.994 308.264,160.25C308.519,160.55 308.798,160.829 309.099,161.085C309.355,161.386 309.634,161.665 309.934,161.922C310.435,162.489 311.016,163.024 311.65,163.502C313.845,165.475 316.474,166.132 319.103,166.132L379.822,166.132L379.822,174.443C379.822,178.064 381.314,181.261 383.743,183.445L383.765,183.467C384.022,183.757 384.301,184.025 384.579,184.281L384.612,184.314C384.869,184.592 385.136,184.86 385.415,185.117L385.436,185.138C385.693,185.428 385.971,185.696 386.25,185.952L386.284,185.985C386.54,186.264 386.808,186.531 387.086,186.788L387.108,186.81C387.364,187.099 387.642,187.367 387.922,187.623L387.955,187.657C388.211,187.935 388.478,188.203 388.757,188.459L388.779,188.481C389.035,188.771 389.314,189.038 389.593,189.294L389.626,189.328C389.882,189.606 390.149,189.874 390.428,190.129L390.45,190.152C390.707,190.442 390.985,190.71 391.263,190.965L391.297,190.999C393.48,193.394 396.634,194.865 400.232,194.865C407.028,194.865 412.287,189.595 412.287,182.799L412.287,166.132L414.481,166.132C421.289,166.132 426.769,160.874 426.769,154.078C426.769,150.59 425.222,147.404 422.759,145.187Z" style="fill:rgb(254,193,48);fill-rule:nonzero;"/>
            <path d="M400.232,194.865C396.634,194.865 393.48,193.394 391.297,190.999L391.263,190.965C390.985,190.71 390.707,190.442 390.45,190.152L390.428,190.129C390.149,189.874 389.882,189.606 389.626,189.328L389.593,189.294C389.314,189.038 389.035,188.771 388.779,188.481L388.757,188.459C388.478,188.203 388.211,187.935 387.955,187.657L387.922,187.623C387.642,187.367 387.364,187.099 387.108,186.81L387.086,186.788C386.808,186.531 386.54,186.264 386.284,185.985L386.25,185.952C385.971,185.696 385.693,185.428 385.436,185.138L385.415,185.117C385.136,184.86 384.869,184.592 384.612,184.314L384.579,184.281C384.301,184.025 384.022,183.757 383.765,183.467L383.743,183.445C381.314,181.261 379.822,178.064 379.822,174.443L379.822,166.132L358.038,166.132C358.622,163.761 359.331,160.77 359.559,159.364C360.634,152.94 360.554,146.271 359.377,139.906C358.974,137.766 358.423,135.695 357.779,133.668L379.822,133.668L379.822,98.229L355.774,128.075C354.902,125.847 353.976,123.64 353.074,121.415L353.012,121.282L352.993,121.232C351.324,117.061 350.166,113.098 349.514,108.943L349.493,108.849C349.05,105.9 348.853,102.874 348.906,99.56C349.017,93.746 347.743,88.235 345.179,83.741L382.451,37.399C382.663,37.399 382.663,37.187 382.886,36.964C383.108,36.741 383.32,36.53 383.543,36.084C384.2,35.873 384.423,35.649 384.646,35.427C384.857,35.215 385.304,34.992 385.514,34.77C385.961,34.547 386.183,34.335 386.83,34.335C387.053,33.89 387.275,33.678 387.71,33.678C387.932,33.455 388.367,33.455 389.024,33.232C389.247,33.232 389.682,33.232 389.904,33.021L393.626,33.021C394.071,33.232 394.283,33.232 394.728,33.232C394.951,33.455 395.608,33.455 396.043,33.678C396.266,33.678 396.7,33.89 396.923,33.89C397.358,34.335 397.792,34.547 398.015,34.77C398.45,34.992 398.673,35.215 399.106,35.427C399.106,35.427 399.33,35.427 399.33,35.649C399.553,35.649 399.987,35.873 399.987,36.084L400.466,36.563C400.655,36.652 400.822,36.786 400.822,36.92L400.867,36.964C401.046,37.143 401.19,37.287 401.302,37.399C401.491,37.488 401.658,37.622 401.658,37.755L401.703,37.8C401.881,37.978 402.026,38.123 402.138,38.234C402.327,38.324 402.494,38.457 402.494,38.591L402.538,38.635C402.717,38.813 402.861,38.959 402.973,39.07C403.162,39.159 403.329,39.293 403.329,39.426L403.374,39.471C403.552,39.649 403.697,39.794 403.808,39.905C403.998,39.995 404.165,40.128 404.165,40.262L404.21,40.307C404.388,40.485 404.532,40.629 404.643,40.741C404.833,40.83 405.001,40.964 405.001,41.098L405.045,41.142C405.224,41.32 405.368,41.465 405.479,41.577C405.669,41.666 405.836,41.799 405.836,41.933L405.881,41.978C406.058,42.156 406.204,42.301 406.315,42.412C406.505,42.502 406.672,42.635 406.672,42.769L406.716,42.814C406.894,42.992 407.039,43.136 407.15,43.248C407.34,43.337 407.507,43.471 407.507,43.605L407.552,43.649C407.73,43.827 407.875,43.972 407.986,44.084C408.176,44.172 408.343,44.306 408.343,44.44L409.222,45.32C409.446,45.543 409.657,45.978 409.88,46.2C410.103,46.412 410.326,46.635 410.761,47.292C410.761,47.515 410.983,47.949 411.195,48.172C411.418,48.606 411.418,48.83 411.64,49.487C411.64,49.709 411.852,50.144 411.852,50.367C412.072,50.794 412.075,51.017 412.075,51.651L412.075,51.682C412.075,52.116 412.287,52.339 412.287,52.773L412.287,135.305C413.389,135.929 414.381,136.731 415.227,137.656L415.239,137.667C415.517,137.923 415.796,138.202 416.063,138.491L416.075,138.502C416.353,138.759 416.632,139.037 416.899,139.327L416.91,139.338C417.188,139.594 417.468,139.873 417.734,140.163L417.746,140.174C418.024,140.43 418.303,140.709 418.57,140.998L418.581,141.009C418.86,141.266 419.138,141.544 419.406,141.834L419.417,141.845C419.695,142.101 419.974,142.379 420.241,142.669L420.253,142.681C420.531,142.937 420.809,143.215 421.077,143.505L421.088,143.516C421.366,143.772 421.645,144.051 421.912,144.34L421.924,144.352C422.202,144.608 422.48,144.886 422.748,145.176L422.759,145.187C425.222,147.404 426.769,150.59 426.769,154.078C426.769,160.874 421.289,166.132 414.481,166.132L412.287,166.132L412.287,182.799C412.287,189.595 407.028,194.865 400.232,194.865ZM344.904,166.132L338.371,166.132C340.812,158.073 342.977,150.1 343.331,150.1C343.345,150.1 343.356,150.112 343.364,150.137C344.951,154.686 345.163,160.832 344.904,166.132Z" style="fill:rgb(247,179,31);fill-rule:nonzero;"/>
            <path d="M379.819,79.502L336.18,133.662L379.819,133.662L379.819,79.502ZM418.41,145.721C418.41,152.519 412.928,157.781 406.13,157.781L403.934,157.781L403.934,174.447C403.934,181.244 398.673,186.505 391.88,186.505C385.081,186.505 379.819,181.244 379.819,174.447L379.819,157.781L310.747,157.781C308.113,157.781 305.485,157.124 303.291,155.149C297.808,150.983 297.15,143.529 301.32,138.266L382.447,37.402C382.667,37.402 382.667,37.183 382.887,36.965C383.105,36.746 383.325,36.526 383.545,36.087C384.203,35.867 384.423,35.649 384.642,35.43C384.861,35.21 385.301,34.991 385.52,34.772C385.959,34.552 386.179,34.333 386.831,34.333C387.051,33.895 387.27,33.675 387.71,33.675C387.929,33.456 388.368,33.456 389.026,33.236C389.246,33.236 389.684,33.236 389.904,33.017L393.63,33.017C394.069,33.236 394.288,33.236 394.727,33.236C394.947,33.456 395.605,33.456 396.044,33.675C396.264,33.675 396.703,33.895 396.922,33.895C397.361,34.333 397.795,34.552 398.015,34.772C398.453,34.991 398.673,35.21 399.111,35.43C399.111,35.43 399.331,35.43 399.331,35.649C399.551,35.649 399.989,35.867 399.989,36.087C400.429,36.526 400.648,36.746 400.867,36.965C401.087,37.183 401.307,37.622 401.526,37.841C401.745,38.061 401.965,38.28 402.404,38.938C402.404,39.157 402.623,39.596 402.843,39.815C403.062,40.253 403.062,40.473 403.281,41.131C403.281,41.349 403.496,41.788 403.496,42.007C403.716,42.446 403.716,42.665 403.716,43.323C403.716,43.762 403.934,43.981 403.934,44.419L403.934,133.662L406.13,133.662C412.928,133.662 418.41,139.144 418.41,145.721Z" style="fill:rgb(254,193,48);fill-rule:nonzero;"/>
            <path d="M256.31,158.056C256.249,158.532 256.505,159.045 256.962,159.146C258.019,159.306 259.29,159.479 260.717,159.678C264.944,150.496 269.264,143.269 268.047,146.124C266.284,150.255 264.72,156.27 264.411,160.183C266.068,160.403 269.914,160.874 271.84,161.108C276.258,144.725 281.126,132.69 280.552,136.47C278.239,151.716 278.647,156.699 279.174,162.028C297.106,164.206 320.651,166.783 337.721,168.258C340.514,159.226 343.127,149.421 343.364,150.137C345.231,155.489 345.194,163.05 344.728,168.845C350.167,169.272 354.523,169.507 357.191,169.509C357.191,169.509 359.15,161.887 359.559,159.364C360.634,152.94 360.554,146.271 359.377,139.906C358.141,133.348 355.52,127.447 353.074,121.415L353.012,121.282L352.993,121.232C351.324,117.061 350.166,113.098 349.514,108.943L349.493,108.849C349.05,105.9 348.853,102.874 348.906,99.56C349.124,88.175 344.029,77.952 334.336,74.249C317.789,57.336 295.057,65.1 288.638,79.396L288.619,79.45C286.107,85.857 283.624,94.23 281.443,100.681L281.431,100.717L281.404,100.79L281.397,100.808C280.336,103.879 279.366,106.486 278.485,108.232C272.68,119.71 261.219,125.645 256.31,158.056Z" style="fill:rgb(12,43,52);fill-rule:nonzero;"/>
            <path d="M338.397,77.68C344.609,81.79 348.142,87.398 348.418,95.738C348.578,100.599 348.458,105.324 349.783,109.997C351.15,114.819 353.636,118.873 356.2,122.927C360.275,129.37 362.955,135.685 362.947,143.851C362.94,152.144 361.702,161.841 358.414,169.342L358.352,169.315C361.158,161.671 362.177,150.883 361.606,142.623C360.979,133.55 356.732,127.566 352.479,120.399C349.101,114.705 347.175,108.542 346.969,101.58C346.847,97.459 347.283,93.211 346.089,89.25C344.663,84.523 341.261,81.337 337.86,78.483C337.397,78.095 337.926,77.369 338.397,77.68Z" style="fill:rgb(12,43,52);fill-rule:nonzero;"/>
            <path d="M266.4,120.117C271.586,114.027 276.878,108.898 280.291,101.123C283.4,94.04 285.494,86.467 288.647,79.396C288.698,79.282 288.857,79.342 288.808,79.463C283.797,92.064 281.889,105.004 273.141,115.274C268.387,120.854 263.673,126.004 260.255,132.861C256.663,140.066 254.714,147.695 253.795,155.835C253.764,156.119 253.423,156.079 253.424,155.804C253.442,142.524 258.258,129.68 266.4,120.117Z" style="fill:rgb(12,43,52);fill-rule:nonzero;"/>
            <path d="M216.075,275.262C216.075,275.262 264.312,288.347 272.294,286.904C280.274,285.461 307.211,249.252 313.196,236.097C319.182,222.942 329.102,157.53 327.17,150.331C325.237,143.132 315.275,143.027 306.844,161.591C298.413,180.156 278.501,220.947 274.954,224.273C271.407,227.598 212.157,271.826 216.075,275.262Z" style="fill:rgb(243,112,94);fill-rule:nonzero;"/>
            <path d="M268.104,282.61C260.703,278.733 251.69,269.35 245.558,268.369C240.021,267.482 237.885,272.025 237.885,272.025C237.885,272.025 235.06,265.758 229.349,265.785C226.41,265.798 223.85,270.505 223.85,270.505C223.85,270.505 221.368,265.582 216.29,265.919C212.245,266.187 210.285,270.863 210.285,270.863C210.285,270.863 205.702,267.25 201.668,268.844C193.488,272.08 192.12,306.856 204.72,312.732C210.592,315.471 210.465,306.958 210.465,306.958C210.465,306.958 213.604,319.155 220.766,319.621C227.929,320.086 227.097,309.036 227.097,309.036C227.097,309.036 230.242,320.829 237.717,320.562C245.498,320.284 242.771,309.374 242.771,309.374C242.771,309.374 247.71,317.313 253.386,315.798C262.757,313.297 252.687,294.475 254.802,286.904L266.572,286.904L268.104,282.61Z" style="fill:rgb(243,112,94);fill-rule:nonzero;"/>
            <path d="M257.423,275.209C264.751,278.267 273.116,266.695 280.657,269.388C290.431,272.878 281.391,284.946 266.572,286.904L254.802,286.904L257.423,275.209Z" style="fill:rgb(243,112,94);fill-rule:nonzero;"/>
            <path d="M209.868,271.557C209.881,271.442 209.723,271.4 209.689,271.515C206.452,282.845 206.368,296.285 210.416,307.424C210.549,307.79 211.201,307.733 211.131,307.302C209.154,295.022 208.379,283.966 209.868,271.557Z" style="fill:rgb(12,43,52);fill-rule:nonzero;"/>
            <path d="M223.784,270.334C223.8,270.199 223.577,270.169 223.537,270.31C220.266,282.003 220.587,297.142 226.766,309.433C226.977,309.855 227.59,310.021 227.383,309.517C223.894,301.033 222.387,281.498 223.784,270.334Z" style="fill:rgb(12,43,52);fill-rule:nonzero;"/>
            <path d="M243.503,310.128C238.034,298.114 236.968,285.555 237.726,272.499C237.736,272.328 237.495,272.332 237.448,272.471C235.337,278.757 235.72,287.13 236.57,293.621C237.385,299.836 239.368,305.282 243.083,310.32C243.226,310.515 243.62,310.386 243.503,310.128Z" style="fill:rgb(12,43,52);fill-rule:nonzero;"/>
            <path d="M281.231,268.47C276.436,266.872 271.504,270.711 267.464,272.854C266.14,273.556 264.827,274.344 263.394,274.786C260.198,275.772 257.824,275.149 256.439,274.26C254.199,272.823 247.201,265.85 242.157,268.166C240.583,268.888 238.73,270.354 237.835,271.836C236.294,269.04 234.327,265.989 230.911,265.427C229.349,265.17 227.889,265.577 226.635,266.537C225.996,267.025 225.438,267.604 224.953,268.245C224.511,268.829 224.055,269.464 223.796,270.158L223.77,270.091L223.668,269.876C223.599,269.733 223.529,269.59 223.456,269.449C223.304,269.154 223.129,268.865 222.915,268.61C222.717,268.376 222.507,268.148 222.27,267.954C222.06,267.782 221.811,267.639 221.532,267.662C221.442,267.669 221.432,267.787 221.515,267.815C221.765,267.902 221.914,268.132 222.054,268.342C222.215,268.585 222.364,268.836 222.532,269.072C222.697,269.305 222.868,269.534 223.033,269.766C223.12,269.889 223.203,270.013 223.283,270.141L223.393,270.324L223.555,270.496C223.633,270.588 223.744,270.54 223.797,270.455L223.828,270.457C224.374,270.035 224.762,269.457 225.218,268.942C225.73,268.363 226.264,267.793 226.888,267.333C228.075,266.458 229.528,266.039 230.992,266.327C234.053,266.93 235.998,269.647 237.628,272.075L237.672,272.104L237.671,272.105L237.796,272.197C239.476,270.732 241.078,269.075 243.395,268.736C245.896,268.371 248.266,269.571 250.336,270.828C251.366,271.454 252.373,272.108 253.324,272.849C254.174,273.512 254.981,274.245 255.894,274.82C259.782,277.269 264.042,275.372 265.105,274.918C267.224,274.011 269.197,272.868 271.179,271.7C273.191,270.514 275.321,269.341 277.68,269.069C279.781,268.826 282.129,269.495 283.458,271.229C284.181,272.171 285.119,273.929 283.206,277.934L283.261,277.987C284.246,276.981 287.425,270.535 281.231,268.47Z" style="fill:rgb(12,43,52);fill-rule:nonzero;"/>
            <path d="M323.41,211.089L277.852,203.812C277.852,203.812 299.617,160.713 312.683,148.213C325.582,135.876 331.867,148.514 329.967,167.576C327.86,188.711 323.41,211.089 323.41,211.089Z" style="fill:rgb(35,67,76);fill-rule:nonzero;"/>
            <path d="M321.925,202.606C320.648,202.303 319.34,202.113 318.057,201.832C316.81,201.557 315.549,201.361 314.288,201.164C311.717,200.762 309.139,200.408 306.561,200.054C301.481,199.357 296.402,198.584 291.305,198.026C288.407,197.71 285.521,197.27 282.618,196.999L282.601,197.153C287.65,198.339 292.8,199.211 297.918,200.045C302.984,200.872 308.073,201.654 313.177,202.212C314.606,202.368 316.04,202.549 317.476,202.62C318.945,202.692 320.429,202.83 321.897,202.852C322.039,202.854 322.06,202.638 321.925,202.606Z" style="fill:rgb(12,43,52);fill-rule:nonzero;"/>
            <path d="M298,287.33L418.676,287.33C418.676,287.33 368.534,162.864 343.04,144.685C335.386,139.227 323.196,138.622 314.974,149.581C308.233,158.563 289.526,194.328 288.671,207.191C287.856,220.084 297.911,232.753 297.911,232.753L298,287.33Z" style="fill:rgb(51,88,99);fill-rule:nonzero;"/>
            <path d="M337.988,202.987C338.291,202.902 338.594,202.866 338.896,202.804C339.178,202.75 339.58,202.736 339.905,202.872C340.589,203.109 341.094,203.819 341.1,204.571C341.089,205.065 341.332,205.509 341.75,205.791C341.966,205.929 342.191,206.007 342.499,206.043C342.802,206.105 343.104,206.141 343.407,206.226C343.104,206.311 342.802,206.348 342.499,206.41C342.202,206.466 341.809,206.459 341.486,206.313C340.808,206.056 340.339,205.307 340.35,204.584C340.355,204.116 340.086,203.66 339.661,203.401C339.437,203.268 339.218,203.206 338.896,203.17C338.594,203.108 338.291,203.071 337.988,202.987Z" style="fill:white;fill-rule:nonzero;"/>
            <path d="M291.841,202.987C292.143,202.902 292.446,202.866 292.749,202.804C293.03,202.75 293.432,202.736 293.757,202.872C294.441,203.109 294.946,203.819 294.952,204.571C294.941,205.065 295.184,205.509 295.602,205.791C295.818,205.929 296.044,206.007 296.35,206.043C296.653,206.105 296.956,206.141 297.26,206.226C296.956,206.311 296.653,206.348 296.35,206.41C296.054,206.466 295.662,206.459 295.338,206.313C294.661,206.056 294.191,205.307 294.203,204.584C294.208,204.116 293.938,203.66 293.514,203.401C293.29,203.268 293.069,203.206 292.749,203.17C292.446,203.108 292.143,203.071 291.841,202.987Z" style="fill:white;fill-rule:nonzero;"/>
            <path d="M354.747,262.931C355.05,262.847 355.352,262.81 355.655,262.749C355.936,262.694 356.338,262.68 356.663,262.816C357.348,263.053 357.852,263.763 357.859,264.515C357.848,265.009 358.091,265.454 358.509,265.735C358.724,265.874 358.95,265.952 359.257,265.987C359.559,266.049 359.862,266.086 360.165,266.17C359.862,266.255 359.559,266.293 359.257,266.355C358.96,266.411 358.568,266.403 358.244,266.257C357.567,266.001 357.098,265.252 357.109,264.528C357.114,264.06 356.845,263.604 356.42,263.345C356.196,263.212 355.975,263.15 355.655,263.114C355.352,263.052 355.05,263.016 354.747,262.931Z" style="fill:white;fill-rule:nonzero;"/>
            <path d="M375.605,206.226C375.909,206.142 376.212,206.105 376.515,206.044C376.796,205.989 377.197,205.975 377.522,206.111C378.206,206.348 378.711,207.058 378.718,207.81C378.707,208.304 378.95,208.749 379.367,209.03C379.584,209.169 379.809,209.247 380.116,209.282C380.419,209.344 380.722,209.38 381.024,209.465C380.722,209.551 380.419,209.587 380.116,209.65C379.819,209.706 379.428,209.698 379.103,209.552C378.427,209.295 377.956,208.546 377.969,207.824C377.974,207.355 377.704,206.899 377.279,206.64C377.056,206.507 376.835,206.445 376.515,206.409C376.212,206.347 375.909,206.311 375.605,206.226Z" style="fill:white;fill-rule:nonzero;"/>
            <path d="M322.278,175.739C322.581,175.655 322.884,175.618 323.186,175.556C323.468,175.502 323.869,175.488 324.194,175.624C324.878,175.861 325.383,176.571 325.39,177.323C325.379,177.817 325.622,178.262 326.04,178.543C326.256,178.681 326.481,178.759 326.788,178.795C327.091,178.857 327.393,178.893 327.696,178.979C327.393,179.064 327.091,179.1 326.788,179.163C326.491,179.218 326.099,179.211 325.775,179.065C325.099,178.808 324.628,178.059 324.641,177.337C324.645,176.868 324.376,176.412 323.951,176.153C323.727,176.02 323.507,175.958 323.186,175.921C322.884,175.86 322.581,175.824 322.278,175.739Z" style="fill:white;fill-rule:nonzero;"/>
            <path d="M355.102,175.052C355.405,174.967 355.708,174.931 356.011,174.869C356.292,174.814 356.694,174.8 357.019,174.936C357.703,175.173 358.208,175.883 358.215,176.635C358.203,177.129 358.446,177.575 358.864,177.855C359.08,177.995 359.306,178.072 359.613,178.108C359.916,178.17 360.219,178.207 360.521,178.292C360.219,178.377 359.916,178.413 359.613,178.475C359.316,178.531 358.924,178.523 358.6,178.378C357.923,178.121 357.453,177.372 357.465,176.649C357.47,176.181 357.2,175.725 356.775,175.465C356.552,175.333 356.332,175.27 356.011,175.235C355.708,175.172 355.405,175.136 355.102,175.052Z" style="fill:white;fill-rule:nonzero;"/>
            <path d="M333.854,143.537C334.157,143.453 334.46,143.417 334.763,143.355C335.044,143.3 335.446,143.286 335.771,143.422C336.455,143.659 336.96,144.369 336.967,145.121C336.955,145.615 337.198,146.06 337.616,146.341C337.832,146.48 338.057,146.558 338.365,146.593C338.668,146.655 338.971,146.692 339.273,146.777C338.971,146.862 338.668,146.899 338.365,146.961C338.068,147.017 337.676,147.009 337.352,146.863C336.675,146.607 336.205,145.858 336.217,145.134C336.222,144.667 335.952,144.211 335.527,143.951C335.304,143.818 335.084,143.756 334.763,143.72C334.46,143.658 334.157,143.622 333.854,143.537Z" style="fill:white;fill-rule:nonzero;"/>
            <path d="M314.221,228.068C314.523,227.984 314.826,227.947 315.129,227.885C315.41,227.831 315.811,227.817 316.138,227.953C316.821,228.19 317.326,228.9 317.332,229.652C317.321,230.146 317.564,230.59 317.982,230.872C318.198,231.01 318.424,231.088 318.73,231.124C319.033,231.186 319.336,231.222 319.64,231.307C319.336,231.392 319.033,231.429 318.73,231.492C318.433,231.547 318.042,231.54 317.718,231.394C317.041,231.137 316.571,230.388 316.583,229.665C316.588,229.197 316.318,228.741 315.893,228.482C315.67,228.349 315.449,228.287 315.129,228.251C314.826,228.189 314.523,228.152 314.221,228.068Z" style="fill:white;fill-rule:nonzero;"/>
            <path d="M350.016,282.993C350.319,282.908 350.622,282.872 350.925,282.81C351.206,282.755 351.608,282.741 351.933,282.877C352.617,283.114 353.122,283.825 353.129,284.576C353.118,285.07 353.361,285.515 353.778,285.796C353.994,285.935 354.221,286.013 354.527,286.048C354.83,286.11 355.133,286.147 355.435,286.232C355.133,286.317 354.83,286.353 354.527,286.416C354.23,286.472 353.838,286.464 353.515,286.318C352.838,286.062 352.367,285.313 352.38,284.589C352.384,284.122 352.115,283.666 351.689,283.407C351.466,283.273 351.246,283.211 350.925,283.175C350.622,283.114 350.319,283.077 350.016,282.993Z" style="fill:white;fill-rule:nonzero;"/>
            <path d="M332.391,253.48C332.694,253.395 332.997,253.359 333.3,253.297C333.581,253.243 333.983,253.229 334.308,253.364C334.992,253.602 335.497,254.312 335.504,255.064C335.492,255.558 335.735,256.003 336.153,256.284C336.369,256.422 336.595,256.502 336.902,256.537C337.205,256.598 337.508,256.634 337.81,256.719C337.508,256.804 337.205,256.841 336.902,256.903C336.605,256.96 336.213,256.952 335.89,256.806C335.212,256.55 334.742,255.8 334.754,255.077C334.759,254.609 334.489,254.153 334.064,253.894C333.841,253.761 333.62,253.699 333.3,253.663C332.997,253.601 332.694,253.564 332.391,253.48Z" style="fill:white;fill-rule:nonzero;"/>
            <path d="M299.787,258.843C300.09,258.758 300.392,258.722 300.695,258.66C300.976,258.606 301.379,258.591 301.704,258.727C302.388,258.964 302.892,259.675 302.899,260.426C302.888,260.921 303.131,261.365 303.549,261.646C303.765,261.785 303.99,261.863 304.298,261.899C304.6,261.961 304.903,261.998 305.206,262.082C304.903,262.168 304.6,262.204 304.298,262.266C304.001,262.322 303.608,262.314 303.285,262.169C302.607,261.912 302.138,261.163 302.149,260.44C302.154,259.972 301.885,259.515 301.46,259.257C301.236,259.124 301.016,259.061 300.695,259.025C300.392,258.964 300.09,258.927 299.787,258.843Z" style="fill:white;fill-rule:nonzero;"/>
            <path d="M347.4,228.791C347.703,228.707 348.006,228.67 348.308,228.608C348.59,228.553 348.992,228.54 349.317,228.675C350.001,228.913 350.506,229.623 350.513,230.375C350.501,230.869 350.744,231.313 351.162,231.594C351.378,231.733 351.604,231.811 351.911,231.846C352.214,231.909 352.516,231.945 352.819,232.03C352.516,232.115 352.214,232.152 351.911,232.214C351.614,232.27 351.222,232.262 350.898,232.117C350.221,231.86 349.751,231.111 349.763,230.388C349.767,229.92 349.498,229.463 349.073,229.205C348.849,229.072 348.63,229.009 348.308,228.973C348.006,228.912 347.703,228.876 347.4,228.791Z" style="fill:white;fill-rule:nonzero;"/>
            <path d="M389.097,269.2C389.399,269.115 389.702,269.079 390.005,269.016C390.286,268.961 390.688,268.948 391.014,269.084C391.697,269.321 392.202,270.031 392.209,270.783C392.197,271.277 392.441,271.722 392.858,272.003C393.074,272.142 393.301,272.219 393.607,272.254C393.91,272.317 394.213,272.354 394.516,272.439C394.213,272.524 393.91,272.56 393.607,272.623C393.31,272.678 392.918,272.67 392.595,272.525C391.917,272.268 391.447,271.519 391.459,270.796C391.464,270.329 391.194,269.873 390.769,269.613C390.546,269.48 390.326,269.418 390.005,269.382C389.702,269.32 389.399,269.284 389.097,269.2Z" style="fill:white;fill-rule:nonzero;"/>
            <path d="M372.545,244.532C372.848,244.448 373.15,244.411 373.453,244.349C373.734,244.295 374.136,244.281 374.462,244.417C375.145,244.654 375.65,245.364 375.657,246.116C375.645,246.61 375.889,247.054 376.307,247.336C376.522,247.474 376.748,247.552 377.056,247.587C377.358,247.65 377.661,247.686 377.964,247.771C377.661,247.856 377.358,247.893 377.056,247.956C376.759,248.011 376.366,248.003 376.043,247.858C375.365,247.601 374.895,246.852 374.907,246.129C374.912,245.661 374.642,245.205 374.218,244.946C373.994,244.813 373.773,244.751 373.453,244.714C373.15,244.653 372.848,244.617 372.545,244.532Z" style="fill:white;fill-rule:nonzero;"/>
            <path d="M407.727,280.482C408.03,280.398 408.333,280.361 408.636,280.299C408.917,280.245 409.319,280.231 409.644,280.367C410.328,280.604 410.833,281.314 410.84,282.066C410.828,282.56 411.072,283.004 411.489,283.286C411.705,283.424 411.932,283.503 412.238,283.538C412.541,283.6 412.844,283.636 413.146,283.721C412.844,283.806 412.541,283.843 412.238,283.905C411.941,283.961 411.549,283.954 411.225,283.808C410.548,283.551 410.078,282.802 410.09,282.079C410.095,281.611 409.825,281.155 409.4,280.896C409.177,280.763 408.957,280.701 408.636,280.665C408.333,280.603 408.03,280.567 407.727,280.482Z" style="fill:white;fill-rule:nonzero;"/>
            <path d="M325.088,192.766C324.933,193.04 324.746,193.28 324.575,193.538C324.415,193.775 324.141,194.069 323.814,194.204C323.163,194.519 322.304,194.374 321.767,193.847C321.427,193.49 320.939,193.347 320.446,193.444C320.194,193.499 319.98,193.603 319.738,193.795C319.48,193.965 319.24,194.153 318.966,194.307C319.12,194.033 319.308,193.794 319.478,193.535C319.648,193.286 319.932,193.013 320.263,192.887C320.924,192.59 321.785,192.788 322.288,193.307C322.616,193.642 323.129,193.774 323.612,193.657C323.864,193.592 324.064,193.481 324.316,193.279C324.574,193.109 324.814,192.92 325.088,192.766Z" style="fill:white;fill-rule:nonzero;"/>
            <path d="M312.979,172.517C312.825,172.791 312.637,173.031 312.467,173.289C312.306,173.526 312.032,173.82 311.706,173.954C311.055,174.269 310.195,174.125 309.659,173.598C309.317,173.241 308.831,173.098 308.337,173.194C308.086,173.249 307.871,173.354 307.63,173.545C307.371,173.715 307.131,173.904 306.857,174.058C307.011,173.784 307.199,173.544 307.369,173.286C307.54,173.036 307.822,172.764 308.154,172.638C308.814,172.341 309.677,172.539 310.18,173.058C310.507,173.392 311.019,173.525 311.504,173.407C311.756,173.343 311.956,173.232 312.208,173.03C312.466,172.86 312.706,172.671 312.979,172.517Z" style="fill:white;fill-rule:nonzero;"/>
            <path d="M374.083,228.02C373.929,228.295 373.74,228.534 373.57,228.792C373.41,229.03 373.136,229.324 372.809,229.458C372.158,229.773 371.299,229.628 370.763,229.101C370.421,228.744 369.934,228.601 369.44,228.698C369.189,228.753 368.974,228.857 368.733,229.049C368.474,229.219 368.235,229.408 367.961,229.561C368.114,229.287 368.303,229.047 368.473,228.789C368.643,228.54 368.926,228.268 369.258,228.142C369.918,227.844 370.78,228.042 371.283,228.562C371.61,228.896 372.124,229.028 372.607,228.911C372.859,228.846 373.059,228.735 373.311,228.534C373.569,228.363 373.809,228.174 374.083,228.02Z" style="fill:white;fill-rule:nonzero;"/>
            <path d="M343.508,162.382C343.353,162.657 343.165,162.896 342.994,163.154C342.834,163.392 342.56,163.685 342.234,163.82C341.583,164.135 340.724,163.991 340.187,163.463C339.846,163.106 339.359,162.963 338.865,163.06C338.614,163.115 338.399,163.219 338.157,163.412C337.899,163.582 337.659,163.77 337.386,163.923C337.539,163.649 337.727,163.41 337.897,163.151C338.068,162.902 338.35,162.63 338.682,162.504C339.343,162.207 340.205,162.404 340.708,162.924C341.035,163.258 341.548,163.39 342.032,163.273C342.284,163.209 342.484,163.097 342.736,162.896C342.994,162.725 343.233,162.537 343.508,162.382Z" style="fill:white;fill-rule:nonzero;"/>
            <path d="M322.326,147.427C322.172,147.701 321.983,147.941 321.813,148.198C321.653,148.436 321.379,148.73 321.053,148.864C320.401,149.179 319.542,149.034 319.006,148.507C318.664,148.15 318.178,148.008 317.683,148.104C317.432,148.159 317.218,148.264 316.976,148.456C316.718,148.626 316.478,148.814 316.204,148.968C316.357,148.693 316.546,148.454 316.716,148.195C316.887,147.946 317.169,147.674 317.501,147.548C318.161,147.251 319.023,147.448 319.526,147.968C319.853,148.302 320.367,148.435 320.85,148.317C321.102,148.253 321.303,148.142 321.555,147.94C321.812,147.77 322.053,147.581 322.326,147.427Z" style="fill:white;fill-rule:nonzero;"/>
            <path d="M342.317,181.428C342.401,181.731 342.438,182.034 342.5,182.337C342.555,182.619 342.568,183.02 342.432,183.345C342.195,184.029 341.485,184.534 340.733,184.541C340.239,184.53 339.795,184.773 339.514,185.19C339.375,185.407 339.297,185.632 339.262,185.939C339.199,186.242 339.163,186.545 339.078,186.847C338.993,186.545 338.956,186.242 338.893,185.939C338.838,185.642 338.846,185.25 338.991,184.926C339.248,184.25 339.997,183.779 340.72,183.792C341.188,183.795 341.644,183.527 341.903,183.101C342.036,182.878 342.099,182.658 342.135,182.337C342.196,182.034 342.232,181.731 342.317,181.428Z" style="fill:white;fill-rule:nonzero;"/>
            <path d="M335.1,234.698C335.185,235.001 335.222,235.303 335.283,235.606C335.338,235.887 335.352,236.289 335.217,236.614C334.979,237.297 334.268,237.802 333.517,237.809C333.023,237.798 332.578,238.042 332.297,238.46C332.158,238.675 332.08,238.901 332.045,239.208C331.983,239.51 331.946,239.813 331.861,240.116C331.776,239.813 331.74,239.51 331.678,239.208C331.621,238.911 331.629,238.519 331.774,238.195C332.031,237.518 332.78,237.047 333.504,237.06C333.972,237.065 334.428,236.795 334.686,236.371C334.819,236.147 334.883,235.926 334.918,235.606C334.979,235.303 335.016,235.001 335.1,234.698Z" style="fill:white;fill-rule:nonzero;"/>
            <path d="M405.059,259.373C405.144,259.675 405.181,259.978 405.242,260.281C405.297,260.563 405.311,260.964 405.176,261.291C404.938,261.973 404.227,262.478 403.476,262.485C402.982,262.473 402.537,262.717 402.256,263.134C402.117,263.35 402.039,263.577 402.004,263.883C401.942,264.186 401.905,264.489 401.82,264.792C401.735,264.489 401.699,264.186 401.637,263.883C401.58,263.586 401.588,263.194 401.733,262.871C401.99,262.193 402.739,261.723 403.463,261.735C403.931,261.74 404.387,261.47 404.645,261.046C404.778,260.822 404.842,260.602 404.877,260.281C404.938,259.978 404.975,259.675 405.059,259.373Z" style="fill:white;fill-rule:nonzero;"/>
            <path d="M372.641,188.805C372.726,189.108 372.763,189.411 372.824,189.713C372.879,189.995 372.892,190.396 372.757,190.721C372.519,191.406 371.809,191.911 371.057,191.917C370.563,191.906 370.119,192.149 369.838,192.567C369.699,192.783 369.621,193.008 369.586,193.315C369.523,193.618 369.487,193.92 369.402,194.223C369.317,193.92 369.28,193.618 369.219,193.315C369.162,193.018 369.17,192.627 369.315,192.302C369.572,191.626 370.321,191.156 371.045,191.168C371.513,191.172 371.969,190.903 372.227,190.478C372.36,190.254 372.423,190.034 372.459,189.713C372.52,189.411 372.557,189.108 372.641,188.805Z" style="fill:white;fill-rule:nonzero;"/>
            <path d="M372.641,274.334C372.725,274.636 372.763,274.939 372.824,275.242C372.879,275.523 372.892,275.924 372.757,276.251C372.519,276.934 371.809,277.439 371.057,277.446C370.563,277.434 370.119,277.677 369.838,278.095C369.699,278.311 369.621,278.537 369.586,278.843C369.523,279.147 369.487,279.45 369.402,279.753C369.317,279.45 369.28,279.147 369.219,278.843C369.162,278.546 369.17,278.155 369.315,277.832C369.572,277.154 370.321,276.684 371.045,276.696C371.513,276.701 371.969,276.431 372.227,276.006C372.36,275.783 372.423,275.562 372.459,275.242C372.52,274.939 372.557,274.636 372.641,274.334Z" style="fill:white;fill-rule:nonzero;"/>
            <path d="M389.097,225.359C389.182,225.662 389.218,225.964 389.279,226.267C389.334,226.548 389.348,226.95 389.213,227.275C388.974,227.96 388.265,228.464 387.514,228.47C387.019,228.46 386.574,228.703 386.293,229.121C386.154,229.337 386.076,229.562 386.041,229.869C385.978,230.171 385.942,230.474 385.857,230.777C385.772,230.474 385.735,230.171 385.674,229.869C385.617,229.572 385.625,229.18 385.77,228.856C386.027,228.179 386.776,227.71 387.5,227.721C387.968,227.726 388.424,227.457 388.682,227.032C388.815,226.808 388.878,226.587 388.914,226.267C388.975,225.964 389.013,225.662 389.097,225.359Z" style="fill:white;fill-rule:nonzero;"/>
            <path d="M305.736,236.603C305.82,236.906 305.856,237.209 305.919,237.511C305.974,237.793 305.987,238.195 305.851,238.52C305.614,239.204 304.904,239.709 304.152,239.715C303.658,239.705 303.213,239.948 302.932,240.365C302.793,240.582 302.716,240.807 302.681,241.114C302.618,241.417 302.581,241.719 302.496,242.022C302.411,241.719 302.375,241.417 302.312,241.114C302.257,240.817 302.265,240.424 302.41,240.101C302.667,239.424 303.416,238.954 304.139,238.966C304.607,238.97 305.062,238.702 305.322,238.276C305.455,238.052 305.517,237.833 305.553,237.511C305.615,237.209 305.651,236.906 305.736,236.603Z" style="fill:white;fill-rule:nonzero;"/>
            <path d="M307.355,188.805C307.44,189.108 307.476,189.411 307.538,189.713C307.593,189.995 307.607,190.396 307.472,190.721C307.234,191.406 306.523,191.911 305.772,191.917C305.278,191.906 304.833,192.149 304.552,192.567C304.413,192.783 304.335,193.008 304.3,193.315C304.237,193.618 304.201,193.92 304.116,194.223C304.031,193.92 303.995,193.618 303.932,193.315C303.876,193.018 303.884,192.627 304.029,192.302C304.286,191.626 305.035,191.156 305.759,191.168C306.226,191.172 306.682,190.903 306.941,190.478C307.074,190.254 307.138,190.034 307.173,189.713C307.234,189.411 307.271,189.108 307.355,188.805Z" style="fill:white;fill-rule:nonzero;"/>
            <path d="M324.792,157.735C324.876,158.038 324.912,158.34 324.974,158.643C325.029,158.924 325.043,159.326 324.907,159.651C324.67,160.335 323.96,160.839 323.208,160.846C322.714,160.836 322.268,161.079 321.988,161.497C321.849,161.712 321.771,161.938 321.735,162.245C321.674,162.547 321.637,162.85 321.552,163.153C321.467,162.85 321.431,162.547 321.368,162.245C321.312,161.948 321.32,161.556 321.466,161.232C321.723,160.555 322.471,160.085 323.194,160.097C323.662,160.102 324.118,159.833 324.378,159.408C324.511,159.184 324.573,158.963 324.608,158.643C324.671,158.34 324.707,158.038 324.792,157.735Z" style="fill:white;fill-rule:nonzero;"/>
            <path d="M320.11,205.772C320.195,206.075 320.231,206.378 320.293,206.68C320.349,206.962 320.362,207.363 320.226,207.688C319.989,208.373 319.279,208.878 318.527,208.884C318.033,208.873 317.588,209.116 317.307,209.534C317.168,209.75 317.09,209.975 317.055,210.282C316.993,210.585 316.956,210.887 316.871,211.19C316.786,210.887 316.75,210.585 316.687,210.282C316.631,209.985 316.639,209.593 316.785,209.269C317.042,208.592 317.79,208.123 318.514,208.134C318.981,208.139 319.437,207.87 319.696,207.445C319.83,207.221 319.892,207.001 319.928,206.68C319.989,206.378 320.026,206.075 320.11,205.772Z" style="fill:white;fill-rule:nonzero;"/>
            <path d="M362.141,212.229C362.225,212.532 362.262,212.835 362.323,213.137C362.379,213.419 362.392,213.82 362.257,214.146C362.019,214.83 361.309,215.335 360.557,215.341C360.063,215.33 359.618,215.573 359.338,215.991C359.198,216.207 359.121,216.432 359.085,216.739C359.023,217.043 358.986,217.345 358.901,217.648C358.816,217.345 358.78,217.043 358.718,216.739C358.662,216.442 358.67,216.05 358.815,215.726C359.072,215.049 359.821,214.58 360.544,214.591C361.012,214.596 361.468,214.327 361.727,213.902C361.86,213.678 361.923,213.458 361.958,213.137C362.019,212.835 362.057,212.532 362.141,212.229Z" style="fill:white;fill-rule:nonzero;"/>
            <path d="M323.295,266.17C323.38,266.473 323.416,266.776 323.477,267.079C323.532,267.36 323.547,267.762 323.411,268.087C323.173,268.771 322.463,269.276 321.712,269.283C321.218,269.272 320.772,269.515 320.491,269.932C320.352,270.149 320.274,270.375 320.239,270.681C320.177,270.984 320.141,271.287 320.056,271.589C319.971,271.287 319.934,270.984 319.872,270.681C319.815,270.384 319.823,269.992 319.969,269.669C320.225,268.992 320.974,268.521 321.698,268.534C322.166,268.538 322.622,268.269 322.881,267.843C323.014,267.62 323.077,267.4 323.112,267.079C323.174,266.776 323.211,266.473 323.295,266.17Z" style="fill:white;fill-rule:nonzero;"/>
            <path d="M354.938,196.981C355.093,196.707 355.281,196.467 355.451,196.21C355.611,195.971 355.886,195.678 356.212,195.544C356.863,195.228 357.723,195.374 358.259,195.9C358.6,196.257 359.087,196.4 359.581,196.303C359.832,196.249 360.047,196.144 360.288,195.952C360.547,195.782 360.786,195.594 361.06,195.44C360.907,195.714 360.719,195.954 360.549,196.212C360.378,196.462 360.096,196.734 359.764,196.86C359.103,197.157 358.241,196.96 357.738,196.44C357.411,196.105 356.897,195.973 356.414,196.09C356.162,196.155 355.962,196.266 355.71,196.467C355.452,196.638 355.212,196.827 354.938,196.981Z" style="fill:white;fill-rule:nonzero;"/>
            <path d="M330.42,219.189C330.574,218.915 330.763,218.675 330.932,218.418C331.093,218.179 331.367,217.885 331.693,217.752C332.345,217.436 333.204,217.581 333.74,218.108C334.082,218.465 334.568,218.608 335.062,218.511C335.313,218.457 335.528,218.352 335.769,218.16C336.028,217.99 336.267,217.801 336.542,217.648C336.389,217.921 336.2,218.162 336.03,218.42C335.859,218.67 335.577,218.941 335.245,219.067C334.585,219.364 333.723,219.168 333.22,218.647C332.892,218.313 332.379,218.181 331.895,218.298C331.643,218.363 331.443,218.474 331.191,218.675C330.933,218.846 330.693,219.034 330.42,219.189Z" style="fill:white;fill-rule:nonzero;"/>
            <path d="M313.809,251.905C313.964,251.631 314.152,251.391 314.323,251.133C314.483,250.896 314.758,250.602 315.084,250.468C315.735,250.153 316.594,250.297 317.13,250.825C317.472,251.181 317.959,251.325 318.452,251.228C318.703,251.173 318.918,251.069 319.16,250.877C319.418,250.707 319.658,250.518 319.932,250.364C319.778,250.638 319.59,250.878 319.42,251.136C319.25,251.386 318.967,251.658 318.635,251.784C317.974,252.081 317.113,251.883 316.61,251.364C316.282,251.03 315.769,250.898 315.286,251.015C315.033,251.079 314.834,251.19 314.581,251.392C314.323,251.562 314.084,251.751 313.809,251.905Z" style="fill:white;fill-rule:nonzero;"/>
            <path d="M320.99,285.901C321.144,285.627 321.333,285.387 321.503,285.129C321.663,284.892 321.937,284.598 322.264,284.463C322.915,284.148 323.774,284.294 324.31,284.82C324.651,285.177 325.139,285.32 325.632,285.223C325.884,285.169 326.098,285.064 326.34,284.872C326.598,284.702 326.838,284.514 327.112,284.36C326.958,284.634 326.769,284.874 326.599,285.132C326.43,285.381 326.146,285.654 325.815,285.78C325.154,286.077 324.293,285.879 323.79,285.36C323.462,285.025 322.949,284.893 322.466,285.01C322.214,285.075 322.014,285.186 321.762,285.388C321.504,285.558 321.264,285.747 320.99,285.901Z" style="fill:white;fill-rule:nonzero;"/>
            <path d="M353.131,248.542C353.285,248.268 353.474,248.028 353.644,247.77C353.805,247.533 354.078,247.239 354.404,247.105C355.056,246.789 355.915,246.934 356.451,247.461C356.793,247.818 357.279,247.961 357.773,247.865C358.024,247.81 358.239,247.706 358.481,247.513C358.739,247.343 358.979,247.155 359.253,247.001C359.099,247.275 358.911,247.515 358.741,247.773C358.57,248.023 358.288,248.295 357.956,248.42C357.296,248.717 356.433,248.52 355.931,248.001C355.603,247.667 355.091,247.534 354.606,247.652C354.354,247.715 354.154,247.827 353.902,248.029C353.644,248.199 353.405,248.387 353.131,248.542Z" style="fill:white;fill-rule:nonzero;"/>
            <path d="M375.254,262.082C375.408,261.809 375.597,261.568 375.767,261.31C375.928,261.073 376.202,260.779 376.527,260.645C377.18,260.33 378.038,260.474 378.574,261.002C378.916,261.36 379.402,261.502 379.896,261.405C380.147,261.35 380.362,261.246 380.604,261.054C380.862,260.883 381.102,260.696 381.377,260.542C381.223,260.815 381.034,261.055 380.864,261.313C380.693,261.563 380.411,261.835 380.079,261.961C379.419,262.257 378.557,262.06 378.054,261.541C377.726,261.207 377.214,261.076 376.729,261.192C376.477,261.255 376.277,261.369 376.025,261.569C375.767,261.74 375.528,261.927 375.254,262.082Z" style="fill:white;fill-rule:nonzero;"/>
            <path d="M338.041,272.36C338.195,272.086 338.384,271.846 338.554,271.588C338.714,271.351 338.988,271.057 339.314,270.922C339.966,270.607 340.825,270.753 341.361,271.279C341.703,271.636 342.189,271.779 342.683,271.682C342.934,271.628 343.149,271.523 343.391,271.332C343.649,271.161 343.889,270.973 344.163,270.819C344.01,271.093 343.821,271.334 343.651,271.591C343.48,271.84 343.198,272.113 342.866,272.239C342.206,272.536 341.344,272.338 340.841,271.819C340.514,271.484 340,271.352 339.516,271.469C339.265,271.534 339.064,271.645 338.812,271.847C338.555,272.017 338.314,272.206 338.041,272.36Z" style="fill:white;fill-rule:nonzero;"/>
            <path d="M386.035,285.901C386.19,285.627 386.378,285.387 386.549,285.129C386.709,284.892 386.983,284.598 387.309,284.463C387.961,284.148 388.82,284.294 389.356,284.82C389.697,285.177 390.184,285.32 390.678,285.223C390.93,285.169 391.143,285.064 391.386,284.873C391.643,284.702 391.884,284.514 392.158,284.36C392.004,284.634 391.815,284.874 391.645,285.132C391.475,285.381 391.192,285.654 390.86,285.78C390.2,286.077 389.339,285.879 388.836,285.36C388.508,285.025 387.995,284.893 387.512,285.01C387.26,285.075 387.059,285.186 386.807,285.388C386.55,285.558 386.309,285.747 386.035,285.901Z" style="fill:white;fill-rule:nonzero;"/>
            <path d="M391.454,249.312C391.608,249.039 391.797,248.798 391.968,248.541C392.128,248.303 392.402,248.009 392.727,247.876C393.38,247.56 394.238,247.705 394.774,248.232C395.116,248.588 395.602,248.731 396.097,248.635C396.348,248.581 396.562,248.476 396.805,248.284C397.062,248.114 397.303,247.925 397.576,247.771C397.423,248.045 397.234,248.286 397.064,248.544C396.894,248.794 396.611,249.065 396.279,249.191C395.619,249.488 394.757,249.292 394.254,248.771C393.927,248.437 393.414,248.305 392.93,248.422C392.678,248.486 392.477,248.598 392.225,248.799C391.968,248.969 391.728,249.158 391.454,249.312Z" style="fill:white;fill-rule:nonzero;"/>
            <path d="M303.796,277.043C303.95,276.769 304.139,276.529 304.308,276.271C304.469,276.034 304.743,275.74 305.069,275.606C305.721,275.29 306.58,275.435 307.116,275.961C307.458,276.319 307.944,276.461 308.438,276.365C308.689,276.311 308.904,276.206 309.145,276.014C309.404,275.844 309.643,275.656 309.918,275.502C309.765,275.776 309.576,276.016 309.406,276.274C309.235,276.524 308.953,276.795 308.621,276.921C307.961,277.218 307.099,277.021 306.596,276.502C306.268,276.167 305.755,276.035 305.271,276.152C305.019,276.216 304.819,276.328 304.567,276.53C304.309,276.7 304.069,276.888 303.796,277.043Z" style="fill:white;fill-rule:nonzero;"/>
            <path d="M301.055,219.96C301.21,219.685 301.397,219.446 301.568,219.188C301.728,218.95 302.003,218.656 302.328,218.522C302.98,218.207 303.839,218.351 304.375,218.878C304.717,219.236 305.203,219.378 305.697,219.282C305.948,219.227 306.163,219.123 306.405,218.93C306.663,218.76 306.903,218.572 307.178,218.419C307.023,218.692 306.835,218.932 306.665,219.19C306.495,219.44 306.212,219.712 305.88,219.837C305.22,220.134 304.358,219.938 303.855,219.418C303.527,219.084 303.015,218.952 302.531,219.069C302.278,219.133 302.079,219.245 301.826,219.446C301.568,219.617 301.329,219.805 301.055,219.96Z" style="fill:white;fill-rule:nonzero;"/>
            <path d="M333.677,143.79C333.306,145.656 324.865,157.969 316.388,157.853C313.627,157.81 313.187,142.731 313.187,142.731L312.899,141.625L308.894,126.144L326.826,113.78L329.422,112.136C329.422,112.136 330.238,116.444 331.201,121.818C331.248,122.067 331.294,122.316 331.339,122.584C331.401,122.886 331.464,123.171 331.509,123.456C331.663,124.257 331.817,125.076 331.953,125.894C332.059,126.517 332.167,127.122 332.254,127.779C332.359,128.437 332.447,129.077 332.553,129.735C333.448,136.241 333.823,142.997 333.677,143.79Z" style="fill:rgb(243,112,94);fill-rule:nonzero;"/>
            <path d="M331.201,121.818C327.144,134.38 317.396,139.77 312.899,141.625L308.894,126.144L326.826,113.78L329.422,112.136C329.422,112.136 330.238,116.444 331.201,121.818Z" style="fill:rgb(12,43,52);fill-rule:nonzero;"/>
            <path d="M286.919,103.158C286.178,131.213 302.897,134.825 308.947,134.979C314.439,135.117 333.157,134.893 336.794,107.065C340.43,79.236 327.619,70.023 315.076,69.04C302.531,68.058 287.66,75.103 286.919,103.158Z" style="fill:rgb(243,112,94);fill-rule:nonzero;"/>
            <path d="M291.178,94.667C291.832,94.562 292.418,94.355 293.055,94.185C293.773,93.992 294.365,93.912 294.876,93.327C295.149,93.014 295.1,92.404 294.821,92.11C294.17,91.423 293.231,91.441 292.357,91.638C291.409,91.852 290.732,92.259 290.133,93.023C289.552,93.763 290.313,94.805 291.178,94.667Z" style="fill:rgb(12,43,52);fill-rule:nonzero;"/>
            <path d="M309.931,98.766C309.269,98.718 308.668,98.564 308.018,98.449C307.286,98.319 306.689,98.292 306.13,97.753C305.83,97.465 305.826,96.854 306.079,96.536C306.667,95.795 307.603,95.731 308.491,95.852C309.455,95.982 310.165,96.329 310.828,97.038C311.472,97.724 310.803,98.829 309.931,98.766Z" style="fill:rgb(12,43,52);fill-rule:nonzero;"/>
            <path d="M295.314,103.798L295.179,103.977C295.367,105.879 295.263,108.09 293.58,108.838L293.603,108.944C295.688,108.506 295.798,105.57 295.314,103.798Z" style="fill:rgb(12,43,52);fill-rule:nonzero;"/>
            <path d="M293.478,101.921C290.396,101.894 290.568,108.06 293.424,108.086C296.234,108.11 296.061,101.944 293.478,101.921Z" style="fill:rgb(12,43,52);fill-rule:nonzero;"/>
            <path d="M292.204,102.363C291.725,102.703 291.261,103.31 290.68,103.365C290.006,103.428 289.488,102.775 289.04,102.148L288.946,102.217C288.946,103.397 289.371,104.613 290.51,104.808C291.548,104.986 292.278,103.953 292.526,102.771C292.572,102.552 292.396,102.226 292.204,102.363Z" style="fill:rgb(12,43,52);fill-rule:nonzero;"/>
            <path d="M307.866,120.127C307.391,120.559 306.912,121.16 306.215,121.193C305.547,121.226 304.776,120.897 304.174,120.639L304.088,120.734C304.558,121.486 305.588,121.984 306.481,121.86C307.353,121.739 307.808,121.005 308.048,120.22C308.08,120.109 307.935,120.064 307.866,120.127Z" style="fill:rgb(12,43,52);fill-rule:nonzero;"/>
            <path d="M298.309,112.459C298.309,112.459 298.081,115.318 298.158,116.656C298.166,116.782 301.955,116.24 305.954,117.337C306.554,117.502 306.519,117.007 305.835,116.648C304.469,115.93 302.722,115.232 299.241,115.426C299.126,115.062 299.675,111.031 299.462,111.027C298.725,111.006 297.313,111.587 296.462,111.89C296.766,105.92 298.023,100.047 298.236,94.099C298.24,93.886 297.933,93.84 297.882,94.032C296.128,100.094 295.628,106.957 295.156,113.114C295.091,113.881 297.787,112.717 298.309,112.459Z" style="fill:rgb(12,43,52);fill-rule:nonzero;"/>
            <path d="M311.657,103.898C311.113,103.659 310.529,103.566 309.935,103.493C309.34,103.446 308.73,103.48 308.12,103.612C307.517,103.767 306.906,104.006 306.365,104.399C305.824,104.795 305.372,105.332 305.051,105.935L304.47,107.028L305.675,106.895C306.489,106.806 307.389,106.789 308.236,106.882C309.09,106.989 309.933,107.195 310.71,107.76C310.283,106.872 309.386,106.242 308.457,105.931C307.512,105.614 306.552,105.507 305.534,105.595L306.157,106.555C306.652,105.699 307.43,105.066 308.416,104.671C309.396,104.285 310.497,104.037 311.657,103.898Z" style="fill:rgb(12,43,52);fill-rule:nonzero;"/>
            <path d="M308.185,108.865C307.28,108.553 306.407,108.403 305.591,107.859C305.404,107.735 304.675,107.185 304.718,107.028C304.783,106.602 304.992,106.122 305.194,105.683C304.906,106.081 304.581,106.451 304.446,106.991C304.512,107.447 304.845,107.92 305.381,108.232C306.245,108.736 307.352,108.905 308.185,108.865Z" style="fill:rgb(12,43,52);fill-rule:nonzero;"/>
            <path d="M301.543,116.462C301.543,116.462 303.284,118.953 305.285,119.262C307.587,119.616 307.859,117.545 305.317,116.369C303.985,115.753 301.543,116.462 301.543,116.462Z" style="fill:rgb(12,43,52);fill-rule:nonzero;"/>
            <path d="M305.278,119.256C304.421,119.133 303.615,118.608 302.968,118.031C303.44,117.313 304.543,116.526 307.011,117.856C307.378,118.748 306.73,119.483 305.278,119.256Z" style="fill:rgb(244,146,181);fill-rule:nonzero;"/>
            <path d="M336.596,107.734C331.974,108.318 330.438,98.646 330.438,98.646C330.438,98.646 321.014,99.131 317.247,85.729C317.247,85.729 317.757,92.028 321.963,96.733C321.963,96.733 305.26,95.778 297.586,82.211C297.586,82.211 300.722,89.159 303.461,91.551C303.461,91.551 296.396,89.945 292.723,84.451C292.723,84.451 290.203,92.619 288.07,94.945C288.07,94.945 287.345,65.833 314.433,67.618C314.433,67.618 331.355,67.918 338.06,80.976C344.766,94.034 336.596,107.734 336.596,107.734Z" style="fill:rgb(12,43,52);fill-rule:nonzero;"/>
            <path d="M332.278,109.102C332.278,109.102 337.865,99.99 341.965,101.931C346.063,103.872 342.229,116.824 337.676,118.839C333.122,120.853 331.174,116.674 331.174,116.674L332.278,109.102Z" style="fill:rgb(243,112,94);fill-rule:nonzero;"/>
            <path d="M340.773,105.616L340.806,105.739C337.619,107.259 336.082,110.391 335.066,113.604C335.965,112.337 337.248,111.595 338.936,112.653C339.025,112.709 338.952,112.847 338.858,112.833C337.503,112.627 336.552,112.917 335.713,114.043C335.118,114.84 334.739,115.826 334.333,116.73C334.198,117.031 333.661,116.906 333.752,116.563L333.774,116.486C333.441,112.327 336.327,106.304 340.773,105.616Z" style="fill:rgb(12,43,52);fill-rule:nonzero;"/>
            <path d="M335.013,117.374C335.051,118.095 335.667,118.649 336.389,118.61C337.109,118.572 337.663,117.957 337.625,117.235C337.587,116.514 336.971,115.96 336.25,115.999C335.528,116.037 334.974,116.652 335.013,117.374Z" style="fill:white;fill-rule:nonzero;"/>
            <path d="M338.182,115.203C338.206,115.665 338.6,116.02 339.062,115.995C339.524,115.971 339.879,115.577 339.854,115.115C339.83,114.653 339.435,114.298 338.974,114.323C338.512,114.347 338.157,114.741 338.182,115.203Z" style="fill:white;fill-rule:nonzero;"/>
            <path d="M257.605,214.765L243.087,218.138L232.643,173.177L247.163,169.804L257.605,214.765Z" style="fill:rgb(229,229,228);fill-rule:nonzero;"/>
            <path d="M237.301,160.291C210.543,166.505 183.8,149.844 177.585,123.087C171.368,96.319 188.029,69.577 214.787,63.361C241.555,57.144 268.288,73.808 274.505,100.575C280.72,127.333 264.068,154.074 237.301,160.291ZM211.785,50.436C177.887,58.309 156.784,92.182 164.659,126.089C172.532,159.987 206.405,181.09 240.303,173.216C274.21,165.341 295.305,131.47 287.431,97.573C279.556,63.666 245.692,42.56 211.785,50.436Z" style="fill:rgb(156,158,160);fill-rule:nonzero;"/>
            <path d="M267.43,267.884L257.682,270.148C254.31,270.931 250.942,268.834 250.159,265.461L237.702,211.833C236.919,208.461 239.017,205.092 242.39,204.31L252.138,202.045C255.509,201.262 258.877,203.361 259.66,206.733L272.117,260.362C272.899,263.733 270.802,267.101 267.43,267.884Z" style="fill:rgb(12,43,52);fill-rule:nonzero;"/>
            <path d="M223.718,161.538C221.79,161.448 219.881,161.247 217.999,160.937C216.298,160.29 214.587,159.379 212.889,158.189C212.577,157.788 212.276,157.364 211.975,156.93C211.174,155.727 210.403,154.443 209.667,153.083L255.341,111.864C255.181,118.172 254.308,124.197 252.901,129.717C252.217,132.399 251.407,134.959 250.492,137.376L223.718,161.538ZM205.731,144.1C203.73,138.379 202.314,131.916 201.736,125.024L250.202,81.281C250.914,83.099 251.567,84.998 252.151,86.972C253.336,90.978 254.238,95.29 254.781,99.835L205.731,144.1ZM201.578,122.76C201.492,121.23 201.448,119.68 201.448,118.115C201.448,117.496 201.454,116.88 201.468,116.268L247.294,74.913C248.067,76.376 248.8,77.915 249.485,79.526L201.578,122.76Z" style="fill:white;fill-rule:nonzero;"/>
            <path d="M217.999,160.937L217.997,160.937C214.76,159.706 211.486,157.528 208.322,154.297L209.667,153.083C210.403,154.443 211.174,155.727 211.975,156.93C212.276,157.364 212.577,157.788 212.889,158.189C214.587,159.379 216.298,160.29 217.999,160.937ZM202.584,146.94C199.792,142.349 197.422,136.731 195.749,130.428L201.736,125.024C202.314,131.916 203.73,138.379 205.731,144.1L202.584,146.94ZM250.492,137.376C251.407,134.959 252.217,132.399 252.901,129.717C252.217,132.397 251.408,134.959 250.493,137.374L250.492,137.376ZM195.256,128.465C194.826,126.651 194.454,124.785 194.145,122.876L201.468,116.268C201.454,116.88 201.448,117.496 201.448,118.115C201.448,119.68 201.492,121.23 201.578,122.76L195.256,128.465ZM194.811,92.946C196.383,85.436 198.936,78.759 202.063,73.288L212.367,63.99C211.917,64.117 211.47,64.25 211.027,64.389C212.257,64.001 213.51,63.658 214.787,63.361C218.572,62.482 222.359,62.06 226.085,62.06C230.485,62.06 234.804,62.648 238.945,63.764C238.948,63.766 238.95,63.769 238.953,63.771C235.707,62.896 232.351,62.345 228.933,62.147L194.811,92.946ZM252.151,86.972C251.567,84.998 250.914,83.099 250.202,81.281L250.203,81.28C250.915,83.098 251.567,84.998 252.151,86.972ZM249.485,79.526C248.8,77.915 248.067,76.376 247.294,74.913L247.295,74.911C248.068,76.375 248.801,77.915 249.486,79.526L249.485,79.526ZM207.354,66.114C207.557,65.894 207.76,65.678 207.964,65.466C208.228,65.363 208.495,65.262 208.761,65.164C208.557,65.24 208.352,65.317 208.149,65.396L207.354,66.114Z" style="fill:rgb(249,199,100);fill-rule:nonzero;"/>
            <path d="M217.997,160.937C198.703,157.766 182.282,143.31 177.585,123.087C178.505,127.019 179.856,130.743 181.601,134.196L194.145,122.876C194.454,124.785 194.826,126.651 195.256,128.465L184.071,138.559C184.395,139.066 184.73,139.564 185.075,140.062L195.749,130.428C197.422,136.731 199.792,142.349 202.584,146.94L196.854,152.111C199.499,154.019 202.318,155.676 205.283,157.04L208.322,154.297C211.486,157.528 214.76,159.706 217.997,160.937ZM250.493,137.374C251.408,134.959 252.217,132.397 252.901,129.717C254.308,124.197 255.181,118.172 255.341,111.864L273.138,95.804C272.077,92.656 270.727,89.683 269.107,86.906L254.781,99.835C254.238,95.29 253.336,90.978 252.151,86.972C251.567,84.998 250.915,83.098 250.203,81.28L258.307,73.966C257.855,73.563 257.385,73.187 256.913,72.823L249.486,79.526C248.801,77.915 248.068,76.375 247.295,74.911L252.837,69.911C248.568,67.179 243.887,65.101 238.953,63.771C238.95,63.769 238.948,63.766 238.945,63.764C256.096,68.384 270.205,82.064 274.505,100.575C275.159,103.392 275.56,106.208 275.722,109.001C272.892,112.913 269.626,116.329 266.4,120.117C264.32,122.56 262.457,125.217 260.834,128.041L250.493,137.374ZM267.254,122.249C269.147,119.894 271.14,117.622 273.141,115.274C274.108,114.138 274.992,112.97 275.805,111.773C275.806,111.81 275.806,111.846 275.806,111.883C275.805,112.169 275.803,112.455 275.798,112.74C274.653,114.435 273.407,116.1 272.108,117.868L267.254,122.249ZM176.368,114.68C176.311,113.708 176.283,112.74 176.284,111.775C176.288,91.476 188.795,72.916 207.964,65.466C207.76,65.678 207.557,65.894 207.354,66.114L181.713,89.254C181.034,90.581 180.413,91.941 179.862,93.324L202.063,73.288C198.936,78.759 196.383,85.436 194.811,92.946L176.343,109.615C176.265,111.291 176.272,112.981 176.368,114.68Z" style="fill:rgb(255,210,106);fill-rule:nonzero;"/>
            <path d="M275.122,120.062C275.424,118.264 275.627,116.442 275.728,114.601L272.108,117.868C273.407,116.1 274.653,114.435 275.798,112.74C275.754,115.215 275.526,117.66 275.122,120.062Z" style="fill:rgb(93,108,113);fill-rule:nonzero;"/>
            <path d="M260.834,128.041C262.457,125.217 264.32,122.56 266.4,120.117C269.626,116.329 272.892,112.913 275.722,109.001C275.776,109.927 275.804,110.853 275.805,111.773C274.992,112.97 274.108,114.138 273.141,115.274C271.14,117.622 269.147,119.894 267.254,122.249L260.834,128.041Z" style="fill:rgb(93,108,113);fill-rule:nonzero;"/>
            <path d="M223.718,161.538C202.02,160.531 182.74,145.283 177.585,123.087C182.282,143.31 198.703,157.766 217.997,160.937L217.999,160.937C219.881,161.247 221.79,161.448 223.718,161.538ZM275.122,120.062C275.526,117.66 275.754,115.215 275.798,112.74C275.803,112.455 275.805,112.169 275.806,111.883C275.805,114.65 275.572,117.383 275.122,120.062ZM176.368,114.68C176.311,113.708 176.283,112.74 176.284,111.775C176.283,112.74 176.311,113.708 176.368,114.68Z" style="fill:rgb(183,186,187);fill-rule:nonzero;"/>
            <path d="M226.007,161.591C225.242,161.591 224.478,161.573 223.718,161.538L250.492,137.376C248.893,141.597 246.972,145.376 244.842,148.574C239.948,155.825 234.539,159.964 229.21,161.487C228.139,161.557 227.07,161.591 226.007,161.591Z" style="fill:rgb(248,248,248);fill-rule:nonzero;"/>
            <path d="M229.21,161.487C234.539,159.964 239.948,155.825 244.842,148.574C246.972,145.376 248.893,141.597 250.492,137.376L250.493,137.374C248.895,141.597 246.975,145.375 244.844,148.572C239.953,155.823 234.544,159.962 229.215,161.487L229.21,161.487Z" style="fill:rgb(241,193,94);fill-rule:nonzero;"/>
            <path d="M229.215,161.487C234.544,159.962 239.953,155.823 244.844,148.572C246.975,145.375 248.895,141.597 250.493,137.374L260.834,128.041C256.502,135.588 253.896,144.326 253.482,153.347C248.678,156.523 243.239,158.911 237.301,160.291C234.598,160.918 231.896,161.313 229.215,161.487ZM254.178,152.878C255.214,145.84 257.101,139.187 260.255,132.861C262.234,128.889 264.649,125.49 267.254,122.249L272.108,117.868C267.13,124.647 261.389,132.939 257.726,150.202C256.588,151.144 255.406,152.036 254.178,152.878Z" style="fill:rgb(255,206,100);fill-rule:nonzero;"/>
            <path d="M257.726,150.202C261.389,132.939 267.13,124.647 272.108,117.868L275.728,114.601C275.627,116.442 275.424,118.264 275.122,120.062C273.134,131.878 266.913,142.605 257.726,150.202Z" style="fill:rgb(86,102,107);fill-rule:nonzero;"/>
            <path d="M253.482,153.347C253.896,144.326 256.502,135.588 260.834,128.041L267.254,122.249C264.649,125.49 262.234,128.889 260.255,132.861C257.101,139.187 255.214,145.84 254.178,152.878C253.949,153.036 253.714,153.193 253.482,153.347Z" style="fill:rgb(86,102,107);fill-rule:nonzero;"/>
            <path d="M226.01,161.593C225.243,161.593 224.478,161.575 223.716,161.54L223.718,161.538C224.478,161.573 225.242,161.591 226.007,161.591C227.07,161.591 228.139,161.557 229.21,161.487L229.215,161.487C231.896,161.313 234.598,160.918 237.301,160.291C243.239,158.911 248.678,156.523 253.482,153.347C253.714,153.193 253.949,153.036 254.178,152.878C255.406,152.036 256.588,151.144 257.726,150.202C266.913,142.605 273.134,131.878 275.122,120.062C271.896,139.277 257.471,155.614 237.298,160.293C233.515,161.17 229.736,161.593 226.01,161.593Z" style="fill:rgb(176,179,180);fill-rule:nonzero;"/>
            <path d="M201.468,116.268C201.794,101.251 206.077,88.144 211.975,79.088C218.408,70.087 225.67,65.701 232.338,65.701C232.496,65.701 232.653,65.703 232.809,65.708C232.965,65.703 233.121,65.701 233.276,65.701C236.74,65.701 240.309,66.886 243.816,69.307C244.162,69.774 244.507,70.242 244.842,70.732C245.695,72.043 246.515,73.439 247.294,74.913L201.468,116.268Z" style="fill:rgb(248,248,248);fill-rule:nonzero;"/>
            <path d="M194.145,122.876C193.467,118.688 193.096,114.291 193.096,109.762C193.096,103.835 193.714,98.188 194.811,92.946L228.933,62.147C232.351,62.345 235.707,62.896 238.953,63.771C240.971,65.665 242.946,67.984 244.844,70.731C245.697,72.042 246.517,73.437 247.295,74.911L247.294,74.913C246.515,73.439 245.695,72.043 244.842,70.732C244.507,70.242 244.162,69.774 243.816,69.307C240.309,66.886 236.74,65.701 233.276,65.701C233.121,65.701 232.965,65.703 232.809,65.708C232.653,65.703 232.496,65.701 232.338,65.701C225.67,65.701 218.408,70.087 211.975,79.088C206.077,88.144 201.794,101.251 201.468,116.268L194.145,122.876Z" style="fill:rgb(241,193,94);fill-rule:nonzero;"/>
            <path d="M181.601,134.196C179.856,130.743 178.505,127.019 177.585,123.087C176.932,120.276 176.531,117.465 176.368,114.68C176.272,112.981 176.265,111.291 176.343,109.615L194.811,92.946C193.714,98.188 193.096,103.835 193.096,109.762C193.096,114.291 193.467,118.688 194.145,122.876L181.601,134.196ZM247.295,74.911C246.517,73.437 245.697,72.042 244.844,70.731C242.946,67.984 240.971,65.665 238.953,63.771C243.887,65.101 248.568,67.179 252.837,69.911L247.295,74.911Z" style="fill:rgb(255,206,100);fill-rule:nonzero;"/>
            <path d="M177.585,123.087C176.926,120.278 176.527,117.467 176.368,114.68C176.531,117.465 176.932,120.276 177.585,123.087Z" style="fill:rgb(176,179,180);fill-rule:nonzero;"/>
            <path d="M209.667,153.083C208.197,150.368 206.87,147.354 205.731,144.1L254.781,99.835C255.164,103.035 255.368,106.352 255.368,109.762C255.368,110.466 255.359,111.166 255.341,111.864L209.667,153.083Z" style="fill:rgb(248,248,248);fill-rule:nonzero;"/>
            <path d="M208.322,154.297C206.721,152.663 205.149,150.759 203.623,148.572C203.271,148.044 202.925,147.499 202.584,146.94L205.731,144.1C206.87,147.354 208.197,150.368 209.667,153.083L208.322,154.297Z" style="fill:rgb(241,193,94);fill-rule:nonzero;"/>
            <path d="M205.283,157.04C202.318,155.676 199.499,154.019 196.854,152.111L202.584,146.94C202.925,147.499 203.271,148.044 203.623,148.572C205.149,150.759 206.721,152.663 208.322,154.297L205.283,157.04ZM255.341,111.864C255.359,111.166 255.368,110.466 255.368,109.762C255.368,106.352 255.164,103.035 254.781,99.835L269.107,86.906C270.727,89.683 272.077,92.656 273.138,95.804L255.341,111.864Z" style="fill:rgb(255,206,100);fill-rule:nonzero;"/>
            <path d="M201.736,125.024C201.674,124.274 201.621,123.519 201.578,122.76L249.485,79.526C249.73,80.102 249.969,80.687 250.202,81.281L201.736,125.024Z" style="fill:rgb(248,248,248);fill-rule:nonzero;"/>
            <path d="M195.749,130.428C195.578,129.781 195.413,129.126 195.256,128.465L201.578,122.76C201.621,123.519 201.674,124.274 201.736,125.024L195.749,130.428ZM250.202,81.281C249.969,80.687 249.73,80.102 249.485,79.526L249.486,79.526C249.731,80.101 249.97,80.687 250.203,81.28L250.202,81.281Z" style="fill:rgb(241,193,94);fill-rule:nonzero;"/>
            <path d="M185.075,140.062C184.73,139.564 184.395,139.066 184.071,138.559L195.256,128.465C195.413,129.126 195.578,129.781 195.749,130.428L185.075,140.062ZM250.203,81.28C249.97,80.687 249.731,80.101 249.486,79.526L256.913,72.823C257.385,73.187 257.855,73.563 258.307,73.966L250.203,81.28Z" style="fill:rgb(255,206,100);fill-rule:nonzero;"/>
            <path d="M208.761,65.164C209.506,64.888 210.261,64.629 211.027,64.389C210.263,64.63 209.507,64.889 208.761,65.164Z" style="fill:rgb(176,179,180);fill-rule:nonzero;"/>
            <path d="M202.063,73.288C202.569,72.404 203.09,71.551 203.623,70.731C204.84,69.027 206.087,67.489 207.354,66.114L208.149,65.396C208.352,65.317 208.557,65.24 208.761,65.164C209.507,64.889 210.263,64.63 211.027,64.389C211.47,64.25 211.917,64.117 212.367,63.99L202.063,73.288Z" style="fill:rgb(241,193,94);fill-rule:nonzero;"/>
            <path d="M179.862,93.324C180.413,91.941 181.034,90.581 181.713,89.254L207.354,66.114C206.087,67.489 204.84,69.027 203.623,70.731C203.09,71.551 202.569,72.404 202.063,73.288L179.862,93.324Z" style="fill:rgb(255,206,100);fill-rule:nonzero;"/>
            <path d="M190.72,120.441L190.682,120.235C190.508,119.277 190.81,121.187 190.726,120.541C190.626,119.769 190.527,118.999 190.461,118.223C190.231,115.511 190.24,112.776 190.462,110.065C190.494,109.682 190.539,109.301 190.569,108.919C190.579,108.792 190.457,109.822 190.563,109.003C190.593,108.77 190.622,108.536 190.655,108.304C190.779,107.405 190.928,106.51 191.102,105.621C191.487,103.659 191.995,101.722 192.634,99.829C192.786,99.375 192.954,98.928 193.114,98.477C193.33,97.87 192.834,99.152 193.165,98.352C193.274,98.086 193.382,97.82 193.495,97.557C193.924,96.551 194.393,95.562 194.9,94.592C195.448,93.544 196.042,92.52 196.679,91.523C196.971,91.065 197.274,90.617 197.581,90.17C198.113,89.397 197.335,90.476 197.746,89.94C197.944,89.682 198.138,89.419 198.339,89.162C200.144,86.849 202.2,84.777 204.419,82.861C204.464,82.822 204.872,82.487 204.532,82.765C204.186,83.048 204.718,82.619 204.778,82.571C205.12,82.305 205.461,82.039 205.808,81.78C206.476,81.281 207.157,80.8 207.85,80.336C209.317,79.356 210.837,78.461 212.393,77.63C214.18,76.675 214.608,74.098 213.588,72.462C212.457,70.645 210.213,70.308 208.42,71.266C198.548,76.542 190.459,84.859 186.346,95.347C183.591,102.369 182.399,110.001 182.898,117.535C183.009,119.219 183.195,120.923 183.531,122.578C183.923,124.506 186.397,125.727 188.195,125.104C190.257,124.389 191.14,122.505 190.72,120.441Z" style="fill:white;fill-rule:nonzero;"/>
            <path d="M194.079,131.076C194.66,133.028 193.548,135.081 191.597,135.661C189.644,136.242 187.592,135.13 187.011,133.178C186.431,131.226 187.542,129.173 189.495,128.593C191.446,128.012 193.499,129.124 194.079,131.076Z" style="fill:white;fill-rule:nonzero;"/>
            <path d="M353.18,162.604C362.178,195.148 366.5,227.82 361.515,244.669C358.337,255.408 350.67,262.653 345.785,265.068C334.374,270.711 296.528,262.705 271.864,257.749C265.803,256.53 280.097,207.696 286.18,210.283C295.153,214.099 322.734,219.233 323.494,219.491C325.122,220.043 328.516,184.735 330.878,164.035C334.167,135.194 347.983,143.814 353.18,162.604Z" style="fill:rgb(243,112,94);fill-rule:nonzero;"/>
            <path d="M224.473,200.991C221.793,205.357 225.272,209.361 225.272,209.361C225.272,209.361 221.559,211.077 220.154,214.747C218.543,218.949 224.427,223.316 224.427,223.316C224.427,223.316 221.028,225.832 219.933,229.857C218.796,234.035 224.105,239.289 224.105,239.289C224.105,239.289 222.226,243.371 223.776,247.529C226.424,254.638 237.776,256.964 244.977,258.515C252.178,260.067 274.057,257.72 278.271,257.696L288.624,211.564C288.624,211.564 258.311,195.421 249.586,194.799C242.235,194.276 227.481,196.089 224.473,200.991Z" style="fill:rgb(243,112,94);fill-rule:nonzero;"/>
            <path d="M225.757,208.691C233.706,207.373 241.612,208.476 249.566,209.129C249.743,209.144 249.718,209.42 249.54,209.404C241.638,208.663 233.689,209.5 225.773,209.074C225.555,209.062 225.543,208.726 225.757,208.691Z" style="fill:rgb(12,43,52);fill-rule:nonzero;"/>
            <path d="M224.71,222.746C226.517,222.502 228.399,222.855 230.192,223.092C232.122,223.348 234.046,223.638 235.967,223.958C239.811,224.597 243.641,225.324 247.448,226.163C247.616,226.2 247.601,226.467 247.423,226.438C243.59,225.807 239.748,225.235 235.891,224.766C233.963,224.531 232.03,224.314 230.098,224.108C228.3,223.918 226.386,223.866 224.663,223.277C224.408,223.19 224.437,222.783 224.71,222.746Z" style="fill:rgb(12,43,52);fill-rule:nonzero;"/>
            <path d="M224.267,239.31C225.829,239.035 227.648,239.597 229.186,239.885C230.932,240.213 232.679,240.532 234.428,240.84C237.926,241.457 241.424,242.071 244.94,242.565C245.116,242.59 245.092,242.865 244.915,242.84C241.339,242.357 237.757,241.921 234.185,241.406C232.432,241.153 230.679,240.889 228.928,240.617C227.439,240.385 225.552,240.265 224.229,239.485L224.267,239.31Z" style="fill:rgb(12,43,52);fill-rule:nonzero;"/>
            <path d="M234.352,196.212C230.724,196.679 226.561,197.476 224.22,200.565C223.206,201.901 222.516,203.55 222.724,205.256C222.922,206.873 223.742,208.268 224.968,209.305L224.958,209.304C222.135,210.168 219.679,212.943 219.411,215.903C219.266,217.504 219.838,218.865 220.849,220.075C221.341,220.663 221.915,221.188 222.46,221.726C223.004,222.263 223.623,222.7 224.193,223.195C223.569,223.65 223.011,224.236 222.468,224.774C221.874,225.361 221.32,225.986 220.85,226.677C219.913,228.057 219.296,229.646 219.279,231.328C219.262,233.011 220.021,234.552 220.934,235.921C221.793,237.21 222.859,238.536 224.262,239.255L224.353,239.125C223.263,238.111 222.365,237.021 221.641,235.715C220.869,234.324 220.211,232.795 220.279,231.173C220.343,229.641 220.982,228.194 221.776,226.907C222.198,226.225 222.662,225.57 223.153,224.935C223.559,224.41 224.634,223.337 224.533,223.273C224.519,223.264 223.343,222.019 222.928,221.477C222.502,220.922 222.097,220.36 221.719,219.771C220.964,218.593 220.498,217.309 220.719,215.897C220.92,214.609 221.566,213.447 222.392,212.456C223.24,211.44 224.322,210.663 225.206,209.688L225.251,209.338C223.243,206.22 223.504,203.258 225.647,200.952C226.717,199.799 228.025,198.938 229.412,198.215C230.986,197.395 232.713,196.963 234.389,196.407C234.492,196.372 234.468,196.197 234.352,196.212Z" style="fill:rgb(12,43,52);fill-rule:nonzero;"/>
            <path d="M300.656,263.393C298.525,262.742 296.275,262.394 294.099,261.917C291.908,261.435 289.712,260.99 287.513,260.55C285.272,260.102 283.029,259.667 280.784,259.244C278.622,258.836 276.458,258.352 274.272,258.093C272.143,257.84 270.076,257.996 267.955,258.238C265.843,258.479 263.722,258.65 261.597,258.752C257.318,258.956 253.01,258.862 248.743,258.472C243.925,258.031 239.112,257.155 234.436,255.914C234.338,255.887 234.304,256.035 234.398,256.065C242.514,258.735 251.069,260.143 259.62,260.042C261.747,260.016 263.871,259.908 265.989,259.701C268.1,259.494 270.213,259.115 272.34,259.16C274.594,259.209 276.817,259.711 279.025,260.124C281.231,260.538 283.435,260.957 285.646,261.347C288.146,261.787 290.643,262.237 293.15,262.63C295.623,263.018 298.12,263.574 300.616,263.762C300.836,263.779 300.849,263.452 300.656,263.393Z" style="fill:rgb(12,43,52);fill-rule:nonzero;"/>
            <path d="M331.711,221.511C328.512,220.416 325.131,219.741 321.846,218.949C318.542,218.153 315.229,217.394 311.915,216.645C305.596,215.218 299.194,214.005 292.952,212.262C291.306,211.802 289.674,211.294 288.065,210.715C287.257,210.425 286.462,210.105 285.672,209.768C284.855,209.419 283.974,209.139 283.199,208.712C283.106,208.661 283.03,208.801 283.12,208.856C283.759,209.247 284.334,209.718 284.983,210.094C285.687,210.502 286.424,210.856 287.162,211.197C288.512,211.822 289.903,212.359 291.312,212.832C294.255,213.819 297.286,214.519 300.307,215.213C306.907,216.731 313.513,218.227 320.135,219.643C322,220.043 323.865,220.444 325.735,220.817C327.682,221.206 329.649,221.643 331.622,221.868C331.854,221.894 331.939,221.589 331.711,221.511Z" style="fill:rgb(12,43,52);fill-rule:nonzero;"/>
            <path d="M321.301,209.405L367.015,215.627C367.015,215.627 358.658,168.073 349.768,152.326C340.995,136.782 331.32,147.061 327.621,165.856C323.519,186.696 321.301,209.405 321.301,209.405Z" style="fill:rgb(35,67,76);fill-rule:nonzero;"/>
            <path d="M363.613,208.739C362.337,208.436 361.028,208.246 359.745,207.963C358.498,207.69 357.236,207.494 355.975,207.296C353.405,206.895 350.827,206.54 348.249,206.186C343.17,205.49 338.09,204.716 332.993,204.159C330.095,203.842 327.209,203.403 324.307,203.131L324.29,203.286C329.339,204.472 334.488,205.343 339.605,206.177C344.673,207.003 349.762,207.787 354.865,208.344C356.295,208.501 357.728,208.682 359.165,208.753C360.634,208.825 362.117,208.962 363.586,208.985C363.727,208.987 363.749,208.771 363.613,208.739Z" style="fill:rgb(12,43,52);fill-rule:nonzero;"/>
            <path d="M388.679,36.217C386.925,52.987 371.899,65.167 355.129,63.413C348.351,62.704 342.327,59.827 337.661,55.53L322.385,57.772L330.028,44.566C328.174,40.054 327.392,35.033 327.933,29.863C329.687,13.093 344.713,0.913 361.483,2.667C378.253,4.421 390.432,19.446 388.679,36.217Z" style="fill:white;fill-rule:nonzero;"/>
            <path d="M388.679,36.217C389.606,27.014 386.151,17.459 379.407,11.136C376.058,7.975 372.006,5.579 367.632,4.189C363.251,2.818 358.563,2.491 354.051,3.171C349.541,3.863 345.174,5.543 341.439,8.153C337.715,10.769 334.573,14.189 332.304,18.118C329.989,22.038 328.791,26.529 328.428,31.038C328.141,35.562 328.881,40.14 330.577,44.34L330.687,44.614L330.542,44.863L322.853,58.043L322.307,57.237L337.598,55.096L337.808,55.066L337.959,55.208C342.001,59.001 347.116,61.65 352.581,62.739C353.945,63.014 355.33,63.188 356.723,63.243C358.114,63.39 359.507,63.287 360.901,63.236C363.667,62.952 366.454,62.484 369.057,61.441C371.67,60.462 374.197,59.179 376.423,57.471C377.594,56.693 378.584,55.691 379.647,54.779C380.585,53.739 381.619,52.778 382.425,51.625C385.929,47.226 388.003,41.788 388.679,36.217ZM388.679,36.217C388.041,41.792 386.003,47.255 382.516,51.695C381.715,52.858 380.683,53.83 379.748,54.882C378.686,55.806 377.697,56.82 376.525,57.61C374.292,59.331 371.782,60.679 369.159,61.711C366.549,62.81 363.74,63.335 360.938,63.671C359.526,63.748 358.111,63.876 356.696,63.752C355.278,63.72 353.867,63.568 352.471,63.313C346.883,62.301 341.591,59.685 337.364,55.854L337.724,55.965L322.464,58.308L321.356,58.478L321.917,57.501L329.516,44.269L329.479,44.792C325.778,36.076 326.612,25.697 331.36,17.576C333.727,13.509 337.028,10.005 340.924,7.393C344.817,4.772 349.333,3.128 353.956,2.503C358.583,1.889 363.345,2.31 367.764,3.778C372.177,5.265 376.224,7.764 379.539,11C386.281,17.408 389.671,27.022 388.679,36.217Z" style="fill:rgb(12,43,52);fill-rule:nonzero;"/>
            <path d="M344.644,40.036L343.935,15.73L348.797,15.73L348.088,40.036L344.644,40.036ZM343.379,47.277C343.379,45.454 344.644,44.138 346.366,44.138C348.189,44.138 349.353,45.454 349.353,47.277C349.353,49.049 348.189,50.417 346.366,50.417C344.594,50.417 343.379,49.049 343.379,47.277Z" style="fill:rgb(254,193,48);fill-rule:nonzero;"/>
            <path d="M356.292,40.036L355.583,15.73L360.444,15.73L359.735,40.036L356.292,40.036ZM355.026,47.277C355.026,45.454 356.292,44.138 358.014,44.138C359.837,44.138 361.002,45.454 361.002,47.277C361.002,49.049 359.837,50.417 358.014,50.417C356.241,50.417 355.026,49.049 355.026,47.277Z" style="fill:rgb(254,193,48);fill-rule:nonzero;"/>
            <path d="M367.939,40.036L367.23,15.73L372.092,15.73L371.383,40.036L367.939,40.036ZM366.674,47.277C366.674,45.454 367.939,44.138 369.661,44.138C371.484,44.138 372.648,45.454 372.648,47.277C372.648,49.049 371.484,50.417 369.661,50.417C367.89,50.417 366.674,49.049 366.674,47.277Z" style="fill:rgb(254,193,48);fill-rule:nonzero;"/>
        </g>
    </g>
</svg>
